<?xml version="1.0" encoding="utf-8"?>
<!-- Generator: Adobe Illustrator 15.0.0, SVG Export Plug-In . SVG Version: 6.00 Build 0)  -->
<!DOCTYPE svg PUBLIC "-//W3C//DTD SVG 1.1//EN" "http://www.w3.org/Graphics/SVG/1.1/DTD/svg11.dtd">
<svg version="1.1" xmlns="http://www.w3.org/2000/svg" xmlns:xlink="http://www.w3.org/1999/xlink" x="0px" y="0px"
	 width="507.082px" height="553.043px" viewBox="0 0 507.082 553.043" enable-background="new 0 0 507.082 553.043"
	 xml:space="preserve">
<g id="Calque_1">
	
		<g id="svg2" xmlns:svg="http://www.w3.org/2000/svg" xmlns:dc="http://purl.org/dc/elements/1.1/" xmlns:cc="http://web.resource.org/cc/" xmlns:rdf="http://www.w3.org/1999/02/22-rdf-syntax-ns#">
		<g id="complete_map">
			<path id="corsica_separating_line" fill="none" stroke="#86AAE0" stroke-width="1.5" d="M432,545.249v-70.25l64.25-42"/>
			<path fill="#86AAE0" stroke="#FFFFFF" stroke-width="0.6" d="M445.339,488.955v2.156l1.969,1.375l3.313,1.938l0.219,1.563
				l-1.969,0.594l-3.125,0.595v1.344l1.156,1.188l0.219,3.906l4.281,1.375l1.563,0.375l1.375,2.156l-0.969,1.375l-1.563,0.563
				l-1.188,2.156l-1.156,1.375l0.563,3.5l2.938-0.188l0.781,0.594l2.75-1.375l0.781,0.781l-1.375,2.938l1.375,1.375l-2.345,1.75
				l-1.563,3.5l4.281,1l6.063,0.563l-2.531,2.938c0,0-1.188-0.459-1.719-0.219c-0.016,0.008-0.049,0.021-0.063,0.031
				c-0.007,0.003-0.027,0.026-0.031,0.03c-0.006,0.003-0.027,0.027-0.031,0.031s-0.029,0.026-0.031,0.031
				c-0.008,0.009-0.024,0.021-0.03,0.031c-0.004,0.005,0.002,0.024,0,0.03c-0.007,0.012-0.027,0.052-0.031,0.063
				c-0.002,0.006,0,0.024,0,0.031c-0.004,0.013-0.029,0.049-0.031,0.063c-0.002,0.015,0,0.047,0,0.063
				c0,0.977-1.344,3.344-1.344,3.344l1.938,2.125l3.531,2.156l6.625,1.75l1.938,0.78l1.78,0.781l-1.188,2.156l3.125-0.188
				l0.594,1.375h3.125l0.781-3.719l-1.969-0.406l2.75-2.905l-0.97-1l0.188-1.75l3.531-1.938l0.188-2.156l-2.344-0.188l-1.563,1.344
				v-1.938l3.125-0.188l0.97-2.344l0.78-6.844l-0.594-2.938l-0.063-2.813l-3.406,2.25l-4.063,0.155l-0.344-2.813l0.531-0.719
				l-1.25-0.875l-0.344-4.781l-0.531-0.875h-2.125l-1.063-0.875v-3.375l-1.405-0.875l-1.063-0.531l-2.125-2.656l0.156-1.594h-2.625
				l-0.906-2.656h-3.719l-1.938-2.655l0.531-0.875l-1.219-0.72l-2.844,0.531l-1.063-0.688h-3.875l-0.375-1.063l-2.188-0.406h-1.559
				V488.955z"/>
			<path fill="#86AAE0" stroke="#FFFFFF" stroke-width="0.6" d="M477.964,449.894l-2.938,1.969l0.405,1.938l1.563,1.969l-1.75,1.344
				l0.781,1.563l-1.188,1.375v1.75l1.969,1.78v2.72l-1.188,2.53l-1.344,0.595l-1.563-2.156l-2.75,0.219l-0.594-0.406h-2.344
				l-2.125,1.97l-0.813,3.313l-5.063,0.969l-3.906,3.313l-0.781,2.156l-1.938-0.188l-1-1.188l-0.563,3.344l-1.375,0.563
				l-0.406,3.125l0.595,1.375l-2.156,1.563l-0.594,1.563l2.188,0.406l0.375,1.063h3.875l1.063,0.688l2.844-0.531l1.219,0.72
				l-0.531,0.875l1.938,2.655h3.719l0.906,2.656h2.625l-0.156,1.594l2.125,2.656l1.063,0.531l1.405,0.875v3.375l1.063,0.875h2.125
				l0.531,0.875l0.344,4.781l1.25,0.875l-0.531,0.719l0.344,2.813l4.063-0.155l3.406-2.25l-0.125-5.781l4.688-6.625v-10.938
				l-1.938-3.719l-0.595-11.719l-1.375-2.156l-2.53-1.938l-0.406-7.25l1.188-3.313l-1.563-5.281l-0.969-4.28l-0.813-1.188
				L477.964,449.894z"/>
			<path fill="#86AAE0" stroke="#FFFFFF" stroke-width="0.6" d="M379.718,409.906l-5.469,3.125l-1.406,10.499l-5.781-0.813
				l-1.655,4.405l1.375,1.938l-6.345,3.875l-1.75,4.063l6.188,0.281l8.219,0.594l1.563,1.563h-2.938l-1.938,3.313l8.375,1.75
				l6.655-1.155l-3.53-3.345l2.344-1.938l3.719,1.563l1.75,3.72l11.156,0.188l2.906-1.188l0.594,1.78l-3.125,2.72l4.313,0.188
				l-0.78,1.969l-1.188,1.375h9.563l4.688,1.563l0.469,0.625l0.188-3.875l1.406-1.594l1.78-1.063l-0.188-1.063l-1.406-1.406h-1.406
				l-0.905-1.063l1.594-1.438v-0.531l-1.75-0.875v-1.406l3.875,0.188l0.906-0.719l-3.375-3.188l0.188-3.719l-2.125-1.75l1.75-3.531
				l4.25-2.844l-3.188-2.124l-2.281,1.78l-5.313,1.219l-4.25-0.531l-7.594-3.154l-4.594,0.155l-3.875-1.75l-1.438-1.969l-3-3.344
				l-7.063-3L379.718,409.906z"/>
			<path fill="#86AAE0" stroke="#FFFFFF" stroke-width="0.6" d="M387,381.344l-2.75,0.219l-2.125,3.313l0.563,3.5l3.313,0.405
				l-0.563,1.563l-2.563,0.188l-2.906,2.938l-0.78-0.969l0.563-3.906l-1.156-1.375L373.312,388l-1.03,2.094l0.563,0.313l3.313,5.5
				v4.438l5.813,5.781v2.5l-2.25,1.28l0.156,0.063l7.063,3l3,3.344l1.438,1.969l3.875,1.75l4.594-0.155l7.595,3.154l4.25,0.531
				l5.313-1.219l2.188-1.718l0.281-1.47l-4.063-4.594h-4.438v-1.594l1.595-1.781v-1.938l-3.531-1.75l-0.344-2.845l1.938-0.875
				v-2.469l-2.125-0.375l-0.156-2.656l-0.031-0.188l-1.78-0.125l-2.938-2.156l-0.781-2.531l-5.469-0.405l-4.094-0.375l-0.406-2.345
				l1.375-2.938l-2.531,2.156l-3.905-0.406L387,387.594l2.719-3.688L387,381.344z"/>
			<path fill="#86AAE0" stroke="#FFFFFF" stroke-width="0.6" d="M457.781,413.188l-2.97,0.125l-1.405,1.438l-5.313-0.188
				l-4.594,3.344l-3.156-2.125l-4.969,1.595l-0.875,1.78l-3.531,2.656l-6.375-4.25l-5.156,1.688l-0.25,1.375l0.095-0.063
				l3.188,2.124l-4.25,2.844l-1.75,3.531l2.125,1.75l-0.188,3.719l3.375,3.188l-0.906,0.719L417,438.248v1.406l1.75,0.875v0.531
				l-1.594,1.438l0.905,1.063h1.406l1.406,1.406l0.188,1.063l-1.78,1.063l-1.406,1.594l-0.188,3.875l0.531,0.719l3.5,1.563
				l0.969,3.905l2.156,0.406l1.969-1.375l3.5-2.156l6.063,0.595l-0.188,1.563l-1.969,0.969l4.688,0.22l-1.156-1.188l-0.406-2.531
				l2.531-1.75l2.938,0.97l1.188,0.375l0.969,1.188l1.375-0.969l0.375-2.563l1.563-1.344h4.094l1.188-1.781l2.719,0.781l3.125-1.344
				v-5.094l-4.094,0.188l3.125-1.938l1.563-2.156l0.406-3.125l5.656-0.781l3.155-3.531l-2.188-2.25v-1.25l-1.063-1.063l1.406-1.219
				l-0.344-1.97l-2.313-0.875H463.5l-2.125-2.123L461,417.906l-2.281-1.063l-2.313-0.156l-0.875-2.125L457.781,413.188z"/>
			<path fill="#86AAE0" stroke="#FFFFFF" stroke-width="0.6" d="M463.843,364.344l-2.125,3.188l-3,1.781l-1.063,2.125L455,371.594
				v1.938l-0.719,1.063l-1.063,2.656l-6.344-0.156l-3-1.594l-1.969,1.405l-3.688-0.188l-0.905,1.25h0.905l0.531,3.344l-0.906,0.375
				l-3.344-2.125v-1.25l-1.938-1.594h-1.06v1.781l-1.594,0.344l-3.375,1.938l-2.125,3.563l-0.531,1.75l1.25,0.344l0.188,2.844h-1.25
				l-1.938-1.78l-1.063,0.188l0.531,1.594l3,3.345l-1.938,0.719l-1.406-0.875h-3.563l-3,2.813l-0.031-0.03l-0.125,1.155
				l-1.156-1.375l-1.563-1.375l-1,2.938l-1.75,1.563l-0.75-0.063l0.03,0.188l0.156,2.656l2.125,0.375v2.469l-1.938,0.875
				l0.345,2.845l3.53,1.75v1.938l-1.594,1.781v1.594h4.438l4.063,4.594l-0.03,0.095l5.155-1.688l6.375,4.25l3.531-2.656l0.875-1.78
				l4.969-1.595l3.156,2.125l4.594-3.344l5.313,0.188l1.406-1.438l2.969-0.125l0.063-0.031l-0.719-1.78l0.875-1.063l-0.344-1.406
				h2.813l0.719-0.875l2.656-1.438l2.125,1.438l1.406-0.905l-3.344-3l-3.563-3.345l-1.219-0.375l-0.188-2.655l-2.125-3.156
				l0.72-4.594l1.063-2.5l1.938-1.595l0.188-2.469l2.656-1.406l0.406-0.155V378.1l2.75-0.375l-1.563-1.375l-1.969-0.594
				l-0.969-2.531l0.78-1.75l3.5-3.719l-0.563-2.75l0.5-0.531L463.843,364.344z"/>
			<path fill="#86AAE0" stroke="#FFFFFF" stroke-width="0.6" d="M463.906,381.875l-0.406,0.155l-2.656,1.406l-0.188,2.469
				l-1.938,1.595l-1.063,2.5l-0.719,4.594l2.125,3.156l0.188,2.655l1.219,0.375l3.563,3.345l3.344,3l-1.406,0.905l-2.125-1.438
				l-2.655,1.438l-0.72,0.875h-2.813l0.344,1.406l-0.875,1.063l0.719,1.78l-2.313,1.406l0.875,2.125l2.313,0.156l2.281,1.063
				l0.375,3.72l2.125,2.123h1.219l2.313,0.875l0.344,1.97l-1.406,1.219l1.063,1.063v1.25l2.188,2.25l0.156-0.188l0.188-4.469
				l3.905,0.78l1.375-1.78l1.97,0.405l0.188-6.062l4.5-0.375l3.906-3.531h3.5l0.188-2.155l3.531-2.125l-1.969-4.5l2.938-2.531
				L493,402.906l4.313-1.375l1.155-4.28l-0.563-2.938l-1-1.75L496.125,390l-2.906,0.219l-9.188,3.313h-2.938l-5.063-4.094
				l-5.094-1.375H468v-3.531L463.906,382V381.875z"/>
			<path fill="#86AAE0" stroke="#FFFFFF" stroke-width="0.6" d="M447.343,339.156l-1.75,0.781l-0.406,2.938l-3.5,0.405l-0.594-2.75
				l-1.156-1.155l-3.53,0.375l-1.375,1.188l-0.781,4.094l0.594,0.97l4.094,0.405l0.781,2.531l1.563,0.781V354l-3.72-0.188
				l-1.563,1.75l-4.469-0.781L429,356.938l-1.781-0.781l-2.53,1.97l0.969,1.75l-1.563,1.563h-4.875v2.344l1.563,0.781l-0.594,1.375
				l-3.313,1.344l-4.094,0.406l-1.188,3.719l-0.188,2.345l2.156,1.75l-2.156,2.53l-2.719-1.375l-3.125-0.188l-0.406,1.75
				l1.969,1.375l-2.375,1.563l0.813,3.313l6.625,1.781l1.188,2.53l1.938,0.375l-0.656,6.095l0.031,0.03l3-2.813h3.563l1.406,0.875
				l1.938-0.719l-3-3.345l-0.531-1.594l1.063-0.188l1.938,1.78h1.25l-0.188-2.844l-1.25-0.344l0.531-1.75l2.125-3.563l3.375-1.938
				l1.594-0.344v-1.781h1.063l1.938,1.594v1.25l3.344,2.125l0.906-0.375l-0.531-3.344h-0.906l0.906-1.25l3.688,0.188l1.969-1.405
				l3,1.594l6.344,0.156l1.063-2.656l0.719-1.063v-1.938l2.656-0.156l1.063-2.125l3-1.781l2.125-3.188l2.531,0.125l1.844-2
				l2.125,0.188v-1.75l-2.719-1.375l-0.594-5.655l-2.156-0.781l-2.719,0.406l-5.094-2.563l-0.781-5.844l-2.906-0.969l-1-1.97
				l-1.281-2.813L447.343,339.156z"/>
			<path fill="#86AAE0" stroke="#FFFFFF" stroke-width="0.6" d="M320.781,352.25l-5.47,1.969l-1.563,3.5l-3.5-2.344l-2.75,8.594
				l-2.813,6.469l4.094,5.031l-0.281,3.875l2.75,1.938v4.688l0.844,6.625l3.313,1.406l-0.281,2.188l4.688-0.813l1.655,0.813
				l-1.03,0.906l6.03,4.031l5.156-1.063l0.875-1.25l-0.719-1.75l2.125-0.531l3,2.813l5.125,0.531l2.313-3.531v-3l1.406-1.594
				l-1.25-0.345v-4.063l-2.813-3l2.313-0.375l1.219-1.063l0.97-1.875l-0.97-0.594l0.563-4.125l-3.313-3.594l-1.375-7.188
				l-4.969-6.344l-3.625,0.875l-0.781-2.719h-1.969l-0.375,2.344l-5.063,1.563L320.781,352.25z"/>
			<path fill="#86AAE0" stroke="#FFFFFF" stroke-width="0.6" d="M301.625,247.969l-2.719,3.5l-1.563,0.188l-1.75,1.781l-1.969-2.156
				l-5.25,5.281v3.125l0.969,0.781l0.188,1.563l-2.719,2.125l-2.563-0.78l-4.875,1l-2.531,2.905l-0.938,2l0.155-0.03l2.345,3.313
				v2.344l1.344,1.75l1.375-1.75l1.563,2.75l2.155,0.781L287,283.5l0.094,1.469l2.969,2.313l1.595-0.719l1.25-3l1.219-0.344v-1.594
				l2.125-0.188l0.188,1.063l2.655-3h3l0.531,1.063l-1.406,1.938l2.094,2.313l0.375,1.406l4.938,2.844l6,0.875l1.781-0.188
				l2.655,0.53l2.281-1.405l1.781,0.875l0.344,2.469l2.313,0.531l3-0.156l0.875,2.125l2.75,1.094l0.094-0.969l4.688-0.219
				l-0.375-11.125l-1.375-2.72l0.563-2.155l3.25-0.563l0.094-0.219l4.094-3.125l0.188-7.625l-1.375-1.938h-3.125l-1.156-1.563
				h-3.313l-0.97-1.188v-2.938l-3.938-7.406l-1.938-1.375l-3.72,5.094l-1.563,0.375l-0.595-2.53l-1.75-0.781l-0.78,1.563H316.5
				l-0.406-1.75l-1.969,1.156L312,255l-2.344-2.563l-3.345-1.563l-0.188-2.531L301.625,247.969z"/>
			<path fill="#86AAE0" stroke="#FFFFFF" stroke-width="0.6" d="M346.187,381.031l-0.969,1.875L344,383.969l-2.313,0.375l2.813,3
				v4.063l1.25,0.345l-1.406,1.594v3l-2.313,3.531l-5.125-0.531l-3-2.813l-2.125,0.531l0.719,1.75l-0.875,1.25l-5.156,1.063
				l-6.03-4.031l-1.156,1.031v2.78l-2.219,0.531l0.563,2.219l2.75,0.563h3.031l0.844,3.844l-3.594,1.656v1.75l2.813,0.969v1.594
				l1.25,0.72l1.063-0.906h1.405l0.72,1.594h2.125l1.063-3.719h1.75l2.656-3.344l3.188,0.344l0.53,4.594l1.22,1.438l1.969-1.063
				l3.344,1.75l1.25,2.125l5.813,3.531l2.125,4.968v2.625l-3.719,2.125l-2.406,2.156l3,0.219v3.906l4.47-0.22L358.69,437l1.75-4.063
				l6.345-3.875l-1.375-1.938l1.655-4.405l5.781,0.813l1.406-10.499l7.719-4.405v-2.5l-5.813-5.781v-4.438l-3.313-5.5l-6.905-3.875
				l-0.531,3.031l-2.781,0.281l-0.813-3.031l-2.781,0.531l-0.531,3.875l-2.219-0.813l-4.688-3.063l-2.219,1.125v-5.531
				L346.187,381.031z"/>
			<path fill="#86AAE0" stroke="#FFFFFF" stroke-width="0.6" d="M274.25,438.468l-0.281,3.594l-3.594-1.125H266.5l0.281-1.375
				l-1.938,0.281l-4.125,1.375l-1.375-2.5l-2.78,2.5l0.844,1.938l-3.063,1.375l-0.531,3.031l-2.5,1.125l2.219,2.469l-0.563,1.656
				l9.687,4.688l0.813,6.656v3.594l0.563,4.688h-4.969l-1.375,1.938l6.344,5.25l3.594-1.938l4.406,5.25L271.375,483l0.844,0.5
				l7.938-3.875l-1.938-2.844l-0.156-3.344h18.531l-0.344-2.5l4.25-2.281l4.938,3.875l2.563,1.188l-0.156-5.595l0.219-6.438
				l-2.344,0.188l-1.969-2.905l1.563-2.563l3.313,3.125l2.938-2.344l1.97-1.938l0.25-2.063l-2.5-0.094l-0.875-2.813l-2.47-0.188
				l-2.313-3.375l-1.781,0.188l-2.094-1.25l-0.375-3l-1.063,0.531l0.531,2.125h-2.469l-0.188,3.531l-3.688,1.25l-1.781-3.72
				l-2.469,1.595l-2.125-1.595l-1.063-2.469l1.78-2.125l-0.843-2.28l-0.219,0.063h-5.813l-6.063-1.094H274.25z"/>
			<path fill="#86AAE0" stroke="#FFFFFF" stroke-width="0.6" d="M335.5,408.375l-2.656,3.344h-1.75l-1.063,3.719h-2.125l-0.72-1.594
				h-1.405l-1.063,0.906l-1.25-0.72v-1.594l-2.813-0.969v1.031l-3.313,0.53l-1.655,1.406l0.53,3.313h-3.03l-3.031-1.656H308.5v1.938
				l0.281,5.78h-3.313h-1.656l-1.125,2.219l-7.188,2.469l-2.75-1.905l-1.656,2.469l-0.813,2.75l3.03,2.781l-1.125,3.594L288,439.498
				l0.844,2.281l-1.781,2.125l1.063,2.469l2.125,1.595l2.469-1.595l1.781,3.72l3.688-1.25l0.188-3.531h2.469l-0.53-2.125
				l1.063-0.531l0.375,3l2.094,1.25l1.781-0.188l2.313,3.375l2.47,0.188l0.875,2.813l2.5,0.094l0.125-1.063l7.03-2.155l0.781-1.75
				l5.469-0.188l1.75-2.156l10.563-8.405l6.625-4.688l2.688,0.188l2.405-2.156l3.72-2.125v-2.625l-2.125-4.968L347,417.563
				l-1.25-2.125l-3.344-1.75l-1.97,1.063l-1.219-1.438l-0.531-4.594L335.5,408.375z"/>
			<path fill="#86AAE0" stroke="#FFFFFF" stroke-width="0.6" d="M300.5,468.656l-4.25,2.281l0.344,2.5h-18.531l0.156,3.344
				l1.938,2.844l-7.938,3.875l-0.844-0.5l-6.531,0.47l-0.813,1.655l-3.313,0.845l-2.219,1.938l-6.062,1.406l0.344,2.063l2.937,2.75
				l5.845,1.563l0.188,3.5l3.125,2.75l2.344-0.406l3.344-4.094l4.095-0.781l6.438,2.156l5.47,4.688l1.563-1.969h1.375l1.375,0.969
				l1.156-0.563l0.188-2.75l5.875-1.375l1.938-2.531l2.938-0.969h4.094l2.563,2.719l3.125,0.219v-3.125l-1.563-2.155l-2.75-1.188
				L308,473.718l-2.563-1.188L300.5,468.656z"/>
			<path fill="#86AAE0" stroke="#FFFFFF" stroke-width="0.6" d="M285.843,323.719l-0.594,2.156l0.969,2.344l-1.188,1.375h-1.938
				l-1.969-2.156l-1.75-0.969l-0.188,5.469l-3.531,2.156l-2.531,3.5l0.594,3.531l-0.781,1.563l-1,3.125h-1.563l-1.563,1.938
				l1.188,1.188l0.781,1.938l-2.531,1.78l1.031,6.531l3.313,2.469l-2.5,5.813l2.5,1.094l-1.094,3.313l2.188,0.28l1.656-2.75h2.781
				l0.531,0.813h6.094l1.094-2.469l1.375-0.563l0.563-4.406h1.375v-4.688l5.531-4.719l0.563,0.844l0.53,3.594l3.876-0.563
				l0.844,5.53h1.906l0.563,5.531l1.719,2.125l2.813-6.469l2.75-8.594l3.5,2.344l1.563-3.5l5-1.813v-1.655l-1.063-1.595l-2.125-1.25
				l1.063-1.594l-0.905-0.875l1.063-0.344l1.25-1.063l-2.125-0.188l-1.063-1.406l-0.345-3.719l-1.25-1.25l-0.875-3.156H309.5
				l-0.875-2.5l-1.406-0.156l-0.719,1.406l-2.813-0.188l-2.655-4.063l-1.063-0.156l-2.125-1.063l-1.25,1.219h-3.155l-1.595-3.344
				L285.843,323.719z"/>
			<path fill="#86AAE0" stroke="#FFFFFF" stroke-width="0.6" d="M317.812,326.344l-1.405,0.719v1.219l-2.125,0.188l-1.938,1.594
				l-3.531,0.531L308,331.75l0.625,0.063l0.875,2.5h4.438l0.875,3.156l1.25,1.25l0.344,3.719l1.063,1.406l2.125,0.188l-1.25,1.063
				l-1.063,0.344l0.906,0.875l-1.063,1.594l2.125,1.25l1.063,1.595v1.655l0.469-0.155l3.531,9l5.063-1.563l0.375-2.344h1.969
				l0.781,2.719l3.625-0.875l4.5,5.75l2.813-4.469l5.063-3.719h4.688l1.563-4.875l3.125-0.22l0.219-3.688H361l-0.563-1.375
				l-0.78-2.531l1.155-1.969l2.75-1.156l1.156-4.688l-2.531-2.938l-3.125,0.188l0.375-3.72l-6.25-2.719l-2.125,0.188l-4.313,3.53
				l-3.938-1.28l-0.781,0.75l-2.469-0.72l-1.75-1.78l-1.063,2.125l-3.031-0.156l-1.405-1.25l-1.063,2.469l-1.938-0.875l-1.25-2.313
				h-1.594l-1.406-1.22l-2.125,0.875l-2.469,0.188l-1.406-0.906l-0.875,0.531L317.812,326.344z"/>
			<path fill="#86AAE0" stroke="#FFFFFF" stroke-width="0.6" d="M299.093,279.5l-2.655,3l-0.188-1.063l-2.125,0.188v1.594
				l-1.22,0.344l-1.25,3l-1.594,0.719l-2.969-2.313l0.281,4.594l1.563,1.938l0.781,3.719l-2.344,1.75l-0.563,2.75l-2.156,1.156
				l-3.719,2.155l0.375,1.75l4.5,4.5l0.405,2.75l-1.78,2.906v2.75l1.188,1.375l0.594,3.313l-0.375,1.344l6,1.75l1.594,3.344h3.156
				l1.25-1.219l2.125,1.063l1.063,0.156l2.655,4.063l2.813,0.188l0.719-1.406L308,331.75l0.813-1.156l3.53-0.531l1.938-1.594
				l2.125-0.188v-1.219l1.406-0.719l0.375,0.875l0.875-0.531l1.405,0.906l2.47-0.188l2.125-0.875l1.405,1.22h1.595l1.25,2.313
				l1.938,0.875l1.063-2.469l1.406,1.25l3.031,0.156l1.063-2.125l1.75,1.78l2.47,0.72l0.78-0.75l-1.53-0.5l-0.595-2.345l3.72-3.5
				l-1.75-6.438l-5.095-3.344l-2.125-5.063l-2.344-3.125l0.594-4.313l1.75-1.75l-3.125-2.531l0.095-0.781l-2.75-1.094l-0.875-2.125
				l-3,0.156l-2.313-0.531l-0.344-2.469l-1.781-0.875l-2.281,1.405l-2.655-0.53l-1.781,0.188l-6-0.875l-4.938-2.844l-0.375-1.406
				l-2.094-2.313l1.406-1.938l-0.531-1.063h-3.002V279.5z"/>
			<path fill="#86AAE0" stroke="#FFFFFF" stroke-width="0.6" d="M179.219,428.531l-1.938,1.031l0.344,0.031l3.313,5.469
				l-2.156,1.969l1.563,2.344l2.344,3.5l-1.938,2.531l-3.125,7.031l-5.281,4.5l1.375,2.75l-1.188,0.781l-2.906-0.594l-0.813,6.438
				l-1.563,1.188l-0.313,4.031l0.5-0.281l3.313,1.97l3.906,2.938l0.375,2.345l3.125,2.53h2.563l6.438-2.75l2.719,3.125l3.719,1
				l1.375-2.344l1.75,0.781l3.781,0.25l-0.25-10.5h1.969l1.75,0.875l1.25-1.22l-0.188-1.938l2.469-1.438l-0.875-3.688l-1.063-0.906
				l-2.125,0.72l1.063-1.781l-0.531-2.281l-3.188-2.313l0.188-1.595l1.781-3l2.281-0.875v-1.25l1.406-2.125l0.938-1.313
				l-3.563-1.845h-4.781l-0.719-1.438h-2.469l-0.719-1.594h-2.281l-0.719,0.719h-2.656l-0.156-1.594l-2.125-1.406l0.719-0.719
				l0.344-1.75l-0.531-0.531l-1.063-2.844l-2.313-0.344l-2.281-1.25l0.156-3.345h-3V428.531z"/>
			<path fill="#86AAE0" stroke="#FFFFFF" stroke-width="0.6" d="M172.156,428.873l-2.813,1.595l-5.656-0.188l-0.531-0.875
				l-3.719,1.25l-2.844,0.875l-2.125-1.594l-2.281,0.719l-0.719-0.906h-2.813l-1.781,0.906l-4.594-0.188l-2.469,1.938l-4.438-0.344
				l-0.875,1.25l-1.063-0.375l1.406-1.406l-2.469-1.938l-3,2.655l-5.125,0.345l-5.625-2.813l-0.813,1.438l-4.5,5.469l-3.5,1.375
				l-2.531,0.375v2.156l2.344,2.155l3.5,0.188l0.188,2.531l2.75,0.219l0.781-1.781l3.719,1.563l2.344,0.594l0.563,2.344
				l-1.344,1.188v3.688l-2.75,1.375l-0.188,1.75l1.75,1.969l3.125,0.97l0.594-2.938l1.75-1.938l-0.188,2.53l1.375,1.97h3.5
				l1.563,2.125l4.688,0.78l4.5,2.75h7.406l0.406,4.095l5.063,3.905l1.969,2.345l2.156-1.156l1.938-0.406l0.969,0.969l1.781-0.969
				l3.406-1.875l0.313-4.031l1.563-1.188l0.813-6.438l2.906,0.595l1.188-0.781l-1.375-2.75l5.281-4.5l3.125-7.031l1.938-2.531
				l-2.344-3.5l-1.563-2.344l2.156-1.969l-3.313-5.469l-5.281-0.375L172.156,428.873z"/>
			<path fill="#86AAE0" stroke="#FFFFFF" stroke-width="0.6" d="M139.813,374.438l-6.188,3.188l-1.594,0.063l-3.469,18.563
				l-4.5,17.188l-1.375,6.656l-1.156,4.687l-2.906,5l5.625,2.813l5.125-0.345l3-2.655l2.469,1.938l-1.406,1.406l1.063,0.375
				l0.875-1.25l4.438,0.344l2.469-1.938l4.594,0.188l1.781-0.905h2.813l0.719,0.905l2.281-0.719l2.125,1.594l2.844-0.875l3.719-1.25
				l0.531,0.875l5.656,0.188l2.813-1.594l-1.375-2.406l1.375-3.719l1.938-2.53l-0.594-3.313l1.563-1.563l-2.313-3.906l1.938-2.344
				l2.156-0.406l1.938,0.781l2.75-2.344l0.969,2.938l0.969,1.375l2.156-0.594l-0.188-2.531l0.625-1.375l-0.469-1.219l0.531-3.875
				l2.125-2.125l-1.063-1.25l-2.313-0.188l-2.656-1.031l-3.875,0.344l-0.719-4.25l-2.469-3L174.094,390l0.375,3.53v1.063
				l-3.375,0.156l-3.531-1.22l-0.719-4.438l-2.469-2.656l-1.75-0.156l-0.188-1.594l-1.938-1.25l-3.188-0.875l0.875-1.063v-1.063
				l-1.063-0.875l-1.219-1.063l-3.563,0.53l-2.094,1.75l-1.438,0.188l-2.281-1.594l-3.375,1.405l-1.594-1.063l1.438-1.75
				l0.156-2.313L139.813,374.438z"/>
			<path fill="#86AAE0" stroke="#FFFFFF" stroke-width="0.6" d="M141.25,315.219l-3.125,4.688l-0.969,16.406l-2.531,16.594
				l-1.781,12.875l-0.188,3.345l1.375-4.5l2.719-3.531l3.906,3.531l0.406,1.155l1.156,1.563l-4.875,0.219l-0.781-1.188l-1.938,0.78
				l-0.406,2.938l-2.156,2.938v4.47l-0.031,0.188l1.594-0.063l6.188-3.188l3.344,1.219L143,377.969l-1.438,1.75l1.594,1.063
				l3.375-1.405l2.281,1.594l1.438-0.188l2.094-1.75l3.563-0.53l1.219,1.063l1.063,0.875v1.063l-0.875,1.063l3.188,0.875l1.938,1.25
				l0.188,1.594l1.75,0.156l2.469,2.656l0.719,4.438l3.531,1.22l3.375-0.156v-1.063L174.094,390l1.063,0.344l2,2.438l3.125-0.5
				l1.438-1.405l-0.188-1.938l-1.25-1.063l0.375-1.97h1.938l1.938-1.219l-0.875-1.781l-0.531-2.655l1.406-2.47l3-4.594l1.781-2.125
				l1.594-0.531l0.344-1.75l-2.125-0.188l-0.875-1.938l0.688-1.938l2.5-0.531l1.75-0.531l2.063-0.28l-0.125-0.095l-0.156-3.875
				l1.938-1.405l-2.469-1.595l-2.469,3l-6.031,0.188l-0.531-1.438l-1.75-0.875l1.406-1.78v-1.938l-0.719-1.063v-1.063l1.781-1.063
				l0.531-3.156l1.063-2.844l-1.063-1.595h-1.938l-1.031-1.219l-1,2.094l-1.938-1.375l-2.75,1.375l-2.344-0.375l-4.469-4.5
				l-2.75-0.188l-0.781-6.25l-5.094-0.594l-0.188-2.938l-0.969,0.969h-5.781l0.281,1.25l1.375,5.656l0.375,5.656l-0.969,1.563
				l-0.969-4.688l-2.75-10.719l-9.969-9l0.219-4.095L141.25,315.219z"/>
			<path fill="#86AAE0" stroke="#FFFFFF" stroke-width="0.6" d="M209.844,310.469l-1.75,3.125l-2.75,0.375l-0.188,4.688l-9.188,6.25
				l-0.188,6.845l-3.531,3.5l-1.938,1.78l-3.906-0.405l-2.156,3.719l-0.563,1.219l1.031,1.219h1.938l1.063,1.595l-1.063,2.844
				l-0.531,3.156l-1.781,1.063v1.063l0.719,1.063v1.938l-1.406,1.78l1.75,0.875l0.531,1.438l6.031-0.188l2.469-3l2.469,1.595
				l-1.938,1.405l0.156,3.875l2.844,1.97l0.344,3.688l3,1.063l1.781-1.595h3.875l2.125-1.75l1.25,0.188l0.344,1.406h3.906
				l0.875-1.063l1.406,0.188l1.594,1.75v1.25l-1.406,0.875l0.531,1.25l1.938,0.155l2.469-2.28h2.125l1.406,1.594l3.063,1.281
				l0.188-0.5l1.781-1.75l0.188-2.938l4.281-0.375l2.75-3.906l-1.188-0.405l-0.188-2.125l3.313-0.406l0.219-1.938l1.563-1
				l1.75-3.125l-1.75-1.938v-2.156l1.344-1.156l-1.75-2.75l0.188-4.28L237,342.688l-1.75-1.188l1.563-1.938l-2.156-1.75l1.563-1.969
				l-1.563-0.781v-2.719l3.906-3.531l-2.156-1.75l-1.156-2.938l-4.125-0.595l-1.375-0.969l2.938-1.375l-0.969-1.344l-4.281-0.594
				l-1-3.906l-6.25-0.594l-1.375,1.969l-1.344,0.375l-1.781-2.344l0.813-2.156l-1-1.938L209.844,310.469z"/>
			<path fill="#86AAE0" stroke="#FFFFFF" stroke-width="0.6" d="M195.25,363.375l-2.063,0.28l-1.75,0.531l-2.5,0.531l-0.688,1.938
				l0.875,1.938l2.125,0.188l-0.344,1.75l-1.594,0.531l-1.781,2.125l-3,4.594l-1.406,2.47l0.531,2.655l0.875,1.781l-1.938,1.219
				h-1.938l-0.375,1.97l1.25,1.063l0.188,1.938l-1.438,1.405l-3.125,0.5l0.469,0.563l0.719,4.25l3.875-0.344l2.656,1.03l2.313,0.188
				l1.063,1.25l-2.125,2.125l-0.531,3.875l0.469,1.219l0.75-1.563l2.313,1.969l3.125-3.125l1.375,1.938l3.313-0.594l3.531-0.375
				l1.563-2.75l5.844-0.563l2.938,2.905l1-0.969l1.938-0.594l-0.781-2.719l2.938-0.781l3.719-0.781l-0.813-2.344l1.188-1.375
				l0.969-3.719l-2.156-2.345l1.375-4.469l2.938,1.75l4.313-0.781l-1.969-4.313l-1.563-5.844l3.906-0.188l0.781-2.063l-3.063-1.281
				l-1.406-1.594H222l-2.469,2.28l-1.938-0.155l-0.531-1.25l1.406-0.875v-1.25l-1.594-1.75l-1.406-0.188l-0.875,1.063h-3.906
				l-0.344-1.406l-1.25-0.188l-2.125,1.75h-3.875l-1.78,1.596l-3-1.063l-0.344-3.688L195.25,363.375z"/>
			<path fill="#86AAE0" stroke="#FFFFFF" stroke-width="0.6" d="M247.469,347.313l-4.156,1.938l-0.594,0.094l0.125,0.188
				l-1.344,1.156v2.156l1.75,1.938l-1.75,3.125l-1.563,1l-0.219,1.938l-3.313,0.406l0.188,2.125l1.188,0.405l-2.75,3.906
				l-4.281,0.375L230.563,371l-1.781,1.75l-0.969,2.563l-3.906,0.188l1.563,5.844l1.656,3.625l2.5-0.094l0.156,1.03l-1.406,1.595
				l1.063,2.125h1.594l1.75,1.938h1.594l1.25-1.406l0.344,0.375v1.75l0.531,2.313l3.719,0.156l3-3.188l1.594-0.156l0.531,0.875
				l0.875,1.938h1.438l0.531-3.531l3,0.375l1.75-2.125l2.843,0.688l4.25-1.938l0.031,0.375l1.375-1.438l-1.781-2.656l-0.688-3.531
				l2.28-1.938l1.063,0.344l3.188-3.531l1.75,0.188l0.719-0.906h3.531l1.25-1.406l0.344-1.094l-1.594-0.219l1.094-3.313l-2.5-1.094
				l2.5-5.813l-3.313-2.469L268.156,352l-3.031-0.813l-2.219,2.188l-1.094-1.938l-3.313,3.313l-2.219,0.28l-3.843-5.5
				L247.469,347.313z"/>
			<path fill="#86AAE0" stroke="#FFFFFF" stroke-width="0.6" d="M237.219,446.373l-1.25,0.875l-0.531,1.063l2.469,1.781l0.719,1.25
				l-0.531,1.03l-4.25,0.375l-1.219,1.75l0.156,0.531l1.594,0.531l0.906,1.25l-1.063,1.75l-1.25-0.156l-1.938-1.781l-2.313-0.688
				l-2.281,0.156l-4.063,2.469l0.156,3.375l1.063,0.719l-0.688,2.625l-4.625,1.25l-1.75,2.125v3.531l0.719,1.063l-1.656,1.531
				l1.063,0.594l6.031,1.156h2.563l3.313,4.313l8.406-0.406l3.313,5.281l2.938-1.188l8.594,1.188l0.625,3.594l6.062-1.406
				l2.219-1.938l3.313-0.845l0.813-1.655l7.188-0.531l-4.406-5.25l-3.594,1.938l-6.345-5.25l1.375-1.938h4.97l-0.563-4.688v-3.594
				l-0.813-6.656l-9.687-4.688l0.563-1.656l-1.844-2.063l-1.563,0.655L248,450.093l-3.906-1.781l-1.063-0.344l1.594,1.938
				l-0.688,1.594l-3.375-0.344l-0.156-1.781l-1.969-2.655L237.219,446.373z"/>
			<path fill="#86AAE0" stroke="#FFFFFF" stroke-width="0.6" d="M207.875,401.875l-5.844,0.563l-1.563,2.75l-3.531,0.375
				l-3.313,0.594l-1.375-1.938l-3.125,3.125l-2.313-1.969l-1.375,2.938l0.188,2.531l-2.156,0.594l-0.969-1.375l-0.969-2.938
				l-2.75,2.344l-1.938-0.781l-2.156,0.406l-1.938,2.344l2.313,3.906l-1.563,1.563l0.594,3.313l-1.938,2.529l-1.375,3.72l1.563,2.75
				l4.938,0.344l1.938-1.031h3l-0.156,3.344l2.281,1.25l2.313,0.345l1.063,2.844l0.531,0.531l-0.344,1.75l-0.719,0.719l2.125,1.406
				l0.156,1.594h2.656l0.719-0.719h2.281l0.719,1.594h2.469l0.719,1.438h4.781l3.563,1.845l0.313-0.438l1.938-1.063l3.531-4.595
				l6.563,0.531l2.813,1.938l0.906-1.25l1.406-4.22l1.75-4.063l3.719-1.594l1.781-0.72l-0.531-1.594l-1.781-0.188l-0.688-1.75
				h-1.438l-2.281-2.313l0.156-1.594l-3-2.999L222,418.656l-1.938,0.845l-0.531-1.063l1.25-1.938l-1.438-1.406v-2.469l-1.219-1.25
				l-3.906-0.188v-2.281l2.125-1.594v-1.781l2.313-1.063l-1.25-0.688l-1.406,0.69h-2.844l-0.875-0.813l-0.469,0.156l-1,0.969
				L207.875,401.875z"/>
			<path fill="#86AAE0" stroke="#FFFFFF" stroke-width="0.6" d="M245,412.438l-2.844,1.063l-0.875,1.405l-1.063-1.219l-1.938-0.188
				l-0.375,1.78l-1.219,0.5l1.75,0.906l-1.219,1.938l-4.438,1.25l-1.938-2.313h-1.75l-1.438,0.875h-5.125L222,418.656l0.531,1.906
				l3,2.999l-0.156,1.594l2.281,2.313h1.438l0.688,1.75l1.781,0.188l0.531,1.594l-1.781,0.72l-3.719,1.594l-1.75,4.063l-1.406,4.22
				l-0.906,1.25l-2.813-1.938l-6.563-0.531l-3.531,4.595l-1.938,1.063l-1.25,1.75l-1.406,2.125v1.25l-2.281,0.875l-1.781,3
				l-0.188,1.594l3.188,2.313l0.531,2.281l-1.063,1.78l2.125-0.719l1.063,0.906l0.875,3.688l-2.469,1.438l0.188,1.938l-1.25,1.22
				l-1.75-0.875h-1.969l0.25,10.5l7.938,0.53l0.406-9.594l2.719,0.406l4.031,2.344l1.656-1.531l-0.719-1.063v-3.531l1.75-2.125
				l4.625-1.25l0.688-2.625l-1.063-0.719l-0.156-3.375l4.063-2.469l2.281-0.156l2.313,0.688l1.938,1.781l1.25,0.156l1.063-1.75
				l-0.906-1.25l-1.594-0.531l-0.156-0.531l1.219-1.75l4.25-0.375l0.531-1.03l-0.719-1.25l-2.469-1.781l0.531-1.063l1.25-0.875
				l1.219,0.345l1.969,2.655l0.156,1.781l3.375,0.344l0.688-1.594l-1.594-1.938l1.063,0.344l3.906,1.781l2.125-0.345l1.563-0.655
				l-0.375-0.406l2.5-1.125l0.531-3.031l3.063-1.375l-0.845-1.938l2.781-2.5l1.375,2.5l4.125-1.375l0.781-0.125l0.063-1.281v-2.5
				l-2.125,0.375l-2.655-0.719l-2.313-2.813l-0.875-1.25l-4.593-1.938L252.065,428l1.406-0.53v-1.938l-1.406-1.594l-1.781-2.843
				l-0.156-2.469l-0.531-0.345l-2.125-2.5l-0.875-2.625L245,412.438z"/>
			<path fill="#86AAE0" stroke="#FFFFFF" stroke-width="0.6" d="M220.188,384.688l-1.375,4.469l2.156,2.345L220,395.219
				l-1.188,1.375l0.813,2.344l-3.719,0.781l-2.938,0.781l0.781,2.719l-1.469,0.438l0.875,0.813H216l1.406-0.688l1.25,0.688
				l-2.313,1.063v1.781l-2.125,1.594v2.281l3.906,0.188l1.219,1.25v2.469l1.438,1.406l-1.25,1.938l0.531,1.063l2.469-1.063h5.125
				l1.438-0.875h1.75l1.938,2.313l4.438-1.25l1.219-1.938l-1.75-0.906l1.219-0.5l0.375-1.78l1.938,0.188l1.063,1.219l0.875-1.405
				l2.844-1.063l1.281,0.594l1-1.655l-1.75-1.938h3.344l1.063-1.938l2.313-2.125h-2.313l0.719-3l6-0.72l2.313-1.405l2.813-1.063
				l0.905-0.906l-1.094-2.813l1.594-3.188l-2.813-0.188l-0.344-4.406l-4.25,1.938l-2.843-0.688l-1.75,2.125l-3-0.375l-0.531,3.531
				h-1.438l-0.875-1.938l-0.531-0.875l-1.594,0.156l-3,3.188l-3.719-0.156l-0.531-2.313v-1.75l-0.344-0.375l-1.25,1.406h-1.594
				l-1.75-1.938h-1.594l-1.063-2.125l1.406-1.595l-0.156-1.03l-2.5,0.094l0.313,0.688l-4.313,0.781L220.188,384.688z"/>
			<path fill="#86AAE0" stroke="#FFFFFF" stroke-width="0.6" d="M294.688,353.375l-5.531,4.719v4.688h-1.375l-0.563,4.406
				l-1.375,0.563l-1.094,2.469h-6.094l-0.531-0.813h-2.781l-1.655,2.75l-0.595-0.063l-0.344,1.094l-1.25,1.406h-3.531l-0.719,0.906
				l-1.75-0.188l-3.188,3.531l-1.063-0.344l-2.281,1.938l0.688,3.531l1.78,2.656l-1.375,1.438l0.313,4.031l2.813,0.188l-1.595,3.188
				l1.25,3.188l1.595-0.905l0.719,1.594l2.281-2.281l3.375-0.188l3.344,2.469l5.844,1.063l2.125,3.72l3,1.405l1.594,4.063
				l-0.188,1.594l1.938,3.563v1.938l3.531,4.594l3.375,1.749l2.125-0.531l1.063-1.404l1.594,0.375l3.656,2.343h0.03h1.625h3.313
				l-0.281-5.78v-1.938h1.656l3.031,1.656h3.03l-0.53-3.313l1.655-1.406l3.313-0.53v-2.781l3.594-1.656l-0.844-3.844h-3.031
				l-2.75-0.563l-0.563-2.219l2.219-0.531v-2.78l2.188-1.938l-1.656-0.813l-4.688,0.813l0.281-2.188l-3.313-1.406l-0.844-6.625
				v-4.688l-2.75-1.938l0.281-3.875l-5.813-7.156l-0.563-5.531H300.5l-0.844-5.53l-3.875,0.563l-0.531-3.594L294.688,353.375z"/>
			<path fill="#86AAE0" stroke="#FFFFFF" stroke-width="0.6" d="M270.813,396.875l-3.375,0.188l-2.281,2.281l-0.719-1.594
				l-1.595,0.905l-0.155-0.375l-0.906,0.906l-2.813,1.063l-2.313,1.405l-6,0.72l-0.719,3h2.313l-2.313,2.125l-1.063,1.938h-3.344
				l1.75,1.938l-1,1.655l0.313,0.125l0.875,2.625l2.125,2.5l0.531,0.345l0.156,2.469l1.781,2.843l1.406,1.594v1.938L252.06,428
				l1.063,1.595l4.593,1.938l0.875,1.25l2.313,2.813l2.656,0.719l2.125-0.375v2.5l-0.063,1.281l1.156-0.156l-0.281,1.375h3.875
				l3.594,1.125l0.281-3.594h1.656l6.063,1.094h5.813l4.406-1.375l1.125-3.594l-3.031-2.781l0.813-2.75l1.656-2.469l2.75,1.905
				l7.188-2.469l1.125-2.219l-3.656-2.343l-1.594-0.375l-1.063,1.404l-2.125,0.531L292,421.281l-3.531-4.594v-1.938l-1.938-3.563
				l0.188-1.594l-1.594-4.063l-3-1.405L280,400.406l-5.844-1.063L270.813,396.875z"/>
			<path fill="#86AAE0" stroke="#FFFFFF" stroke-width="0.6" d="M383.281,262.594l-2.156,0.219l-1.375,2.531l-3.688,14.438
				l-0.53,1.188l-0.375,4.563L374.093,287v6.594l-0.625,1.5l3.813,2.313l1.5,0.22l2.344,2.125l0.406,3.405l2.563-0.844l3.969,1.156
				l0.063-0.75h1.906l2.75,2.563l2.563-1.28l1.281-3.813l1.281-1.5l1.688,0.219l1.688,1.5l0.875,2.75l7.844,9.563l2.344-1.688
				l0.406-3.625l2.563-0.438v-6.375l1.281-1.063l0.406-5.719l0.5,0.406l-0.063-2.094l-1.063-1.938l0.438-5.5l1.906,1.063
				l1.063-1.938l1.905-0.625l1.97-1.563h-2.125v-3.72l2.344-1.375l3.5-0.375l0.219-1.969l-1.188-0.781l2.938-3.719l-0.406-1.156
				l-3.344-1.78l-8.125,8.938h-5.656v-2.344l-3.125-1.563l-3.719,4.095l-2.938,0.405v-2.75l-2.531-1.155l-3.906-5.47l-3.531-1.375
				L390.906,263l-1.97-0.406L387,263.969l-1.563,0.406L383.281,262.594z"/>
			<path fill="#86AAE0" stroke="#FFFFFF" stroke-width="0.6" d="M397.906,298.688l-1.281,1.5L395.343,304l-2.563,1.28l-2.75-2.563
				h-1.906l-0.219,2.781l2.78,2.344l-4.25,5.5l-5.53,1.281l-4.25,1.5l2.75,2.75l0.655,1.28l-4.25,2.125l-0.438,6.156l-0.125,0.063
				l1.188,2.469l3.406,1.063l2.344-0.844l2.75-1.906l3.625,2.97h2.97l2.125,2.969l-0.875,2.125l0.438,3l-1.063,2.969l0.438,1.063
				l1.469-0.438l3.406,1.063l4.469,1.28l1.906-1.28l0.844-1.47h0.656l0.188,15.906l1.063,1.063h2.781l2.531,1.5l1.905,1.5
				l1.938,0.188l1.25,1.063l3.531,0.405l0.25-0.594l-1.563-0.781v-2.344h4.875l1.563-1.563l-0.97-1.75l2.531-1.97l1.781,0.781
				l2.531-2.156l4.469,0.781l1.563-1.75l3.72,0.188v-4.281l-1.563-0.781l-0.781-2.531L434.843,346l-0.594-0.97l0.781-4.094
				l1.375-1.188l-1.125-1.531l-2.125-1.281l-1.281,1.281l0.438-1.719v-1.688l-1.719-1.719l0.875-4.031l1.906-1.063l-0.219-2.75
				l-4.031-4.031h-1.5l-1.063,1.469l-2.53-3.375l-1.5,0.188l-1.281,2.78l0.875,1.688l-0.656,0.656l-1.688-1.281l-4.906-1.063
				l-2.313-4.25v-1.719l-2.344-2.531l-0.25-1.094l-7.813-9.531l-0.875-2.75l-1.688-1.5L397.906,298.688z"/>
			<path fill="#86AAE0" stroke="#FFFFFF" stroke-width="0.6" d="M446.125,266.188l-4.469,0.781l-4.313,3.5l-1.156-1.75l-2.155,0.188
				l-1.97,4.313l0.22,1.75l2.125,1.75l-3.906,2.563l-2.531,2.345h-4.313l-1.97,1.563l-1.905,0.625l-1.063,1.938l-1.906-1.063
				l-0.438,5.5l1.063,1.938l0.063,2.094l1.625,1.281v5.53l3.844,0.625l1.47,2.781l3.405,0.406l0.625-1.25h1.72l2.969,3.188
				l1.063,1.063l3.406-0.656l0.844-1.688l0.844-3.406l1.906-1.5l1.5-4.438l1.906-1.28l1.5,0.405l0.406,1.281l-1.063,1.281
				l1.906,2.344h3.188l1.938,3.188l-0.438,1.063l1.905-1.281l1.5-1.688l1.313,0.156l0.094-3.406l6.656-2.75l0.781-1.938
				l-0.406-4.313l-4.281-4.469l-1.375,0.78v-1.78v-2.906l-3.719-1.781l-0.188-1.563l2.156-2.345v-2.719l-3.531-3.719l-0.188-2.531
				L446.125,266.188L446.125,266.188z"/>
			<path fill="#86AAE0" stroke="#FFFFFF" stroke-width="0.6" d="M339.531,278.031L336,278.625l-0.563,2.155l1.375,2.72l0.375,11.125
				l-4.688,0.219l-0.188,1.75l3.125,2.531l-1.75,1.75l-0.595,4.313l2.345,3.125l2.125,5.063l5.094,3.344l1.75,6.438l-3.719,3.5
				l0.594,2.345l5.469,1.78l4.313-3.53l2.125-0.188l6.25,2.719l-0.375,3.72l3.125-0.188l2.47,2.844l1.813-0.5l3.375-0.625
				l0.875-3.844l4.656-2.75l0.438-6.156l0.155-0.094l-2.28-0.344l-2.125,0.844l-1.72-1.063l2.125-2.531l-0.625-1.906l-6.594-1.063
				l-5.531-5.095v-1.719l1.281-1.063v-1.47l-1.469-0.875l1.25-1.905v-2.75l-2.531-2.345v-2.344l-1.719-1.688v-1.906l-0.845-3.188
				l1.281-1.28l0.219-3.813h4.031l1.063-1.281l-1.281-2.125v-1.905l-1.063-0.845l-0.75,4h-2.155l-1.563,1.563l-1.188-1.188
				l-6.25-0.969l-2.344,1.375h-1.563l-0.375-1.375l-2.938-0.594l-0.188-3.125L339.531,278.031z"/>
			<path fill="#86AAE0" stroke="#FFFFFF" stroke-width="0.6" d="M371.75,275.313l-2.125,0.188l-1.781,1.75l-1.155-1.563l-1.75,1.563
				l-2.375-1.563h-1.938l-0.781,0.594l-0.405,2.25l1.063,0.845v1.905l1.281,2.125l-1.063,1.281h-4.03l-0.22,3.813l-1.28,1.28
				l0.844,3.188v1.906l1.719,1.688v2.344l2.531,2.345V304l-1.25,1.905l1.469,0.875v1.47l-1.281,1.063v1.719l5.531,5.095l6.594,1.063
				l0.625,1.906l-2.125,2.531l1.719,1.063l2.125-0.844l2.281,0.344l4.094-2.031l-0.655-1.28l-2.75-2.75l4.25-1.5l5.53-1.281
				l4.25-5.5l-2.78-2.344l0.155-2.031l-3.969-1.156l-2.563,0.844l-0.406-3.405l-2.344-2.125l-1.5-0.22l-3.813-2.313l0.625-1.5V287
				l1.063-1.47l0.375-4.563l-0.656,1.563l-1.375-0.188l-0.75-3.906L371.75,275.313z"/>
			<path fill="#86AAE0" stroke="#FFFFFF" stroke-width="0.6" d="M417,293.813l-0.406,5.719l-1.28,1.063v6.375l-2.563,0.438
				l-0.406,3.625L410,312.719l-0.031-0.031l0.25,1.094l2.345,2.531v1.719l2.313,4.25l4.906,1.063l1.688,1.281l0.656-0.656
				l-0.875-1.688l1.281-2.78l1.5-0.188l2.531,3.375l1.063-1.469h1.5l4.031,4.031l0.219,2.75l-1.906,1.063l-0.875,4.031l1.719,1.719
				v1.688l-0.438,1.719l1.281-1.281l2.125,1.281l1.125,1.531l3.531-0.375l1.155,1.155l0.595,2.75l3.5-0.405l0.405-2.938l1.75-0.781
				l3.75,0.188l-0.063-0.125l5.844-2.344l2.156,1.375h2.155l0.188-2.345l2.531-1.375l0.969-1.155l5.094-1.97l0.595-3.313l-1-1.563
				l2.75-4.688l-2.531-0.969l-0.781-2.75L463.718,315c0,0,0.316-5.987-0.188-7.063c-0.017-0.026-0.049-0.077-0.063-0.094
				c-0.004-0.006-0.024-0.027-0.031-0.031c-0.004,0-0.026,0-0.03,0c0-0.007,0-0.028,0-0.031c-0.004,0-0.027,0-0.031,0
				c-0.002,0-0.027,0-0.031,0s-0.026,0-0.031,0c-0.78,0.195-3.688,0.406-3.688,0.406l-2.938-3.344l0.095-3.219l-1.313-0.156
				l-1.5,1.688l-1.906,1.281l0.438-1.063l-1.938-3.188h-3.188l-1.906-2.344l1.063-1.281l-0.406-1.281l-1.5-0.405l-1.906,1.28
				l-1.5,4.438l-1.906,1.5l-0.844,3.406l-0.844,1.688l-3.406,0.656l-1.063-1.063l-2.97-3.188h-1.719l-0.625,1.25l-3.406-0.406
				l-1.469-2.781l-3.844-0.625V295.5L417,293.813z"/>
			<path fill="#86AAE0" stroke="#FFFFFF" stroke-width="0.6" d="M375.25,328.5l-4.531,2.688l-0.875,3.844l-3.375,0.625l-1.813,0.5
				l0.063,0.095l-1.155,4.688l-2.75,1.156l-1.156,1.969l0.781,2.531l0.563,1.375h-2.906l-0.219,3.688l-3.125,0.22l-1.563,4.875
				H348.5l-5.063,3.719l-2.813,4.469l0.469,0.594l1.375,7.188l3.313,3.594l-0.563,4.125l4.156,2.5v5.531l2.219-1.125l4.688,3.063
				l2.219,0.813l0.531-3.875l2.78-0.531l0.813,3.031l2.781-0.281l0.53-3.031l6.345,3.563l1.03-2.094l2.688-0.406l0.219-4.125
				l-0.625-0.875l-0.844-0.188v-1.5l0.625-1.5l-1.063-1.688l0.625-3.813l2.563-3v-4.219l-1.063-4.906l1.906-0.405l0.438-2.125
				l1.905-3.625l1.063-2.75l-1.688-4.25l-1.062-3.41l-1.5-5.938v-7.969l-1.063-0.344L375.25,328.5z"/>
			<path fill="#86AAE0" stroke="#FFFFFF" stroke-width="0.6" d="M384.937,329.281l-2.75,1.906l-2.344,0.844l-2.344-0.719v7.969
				l1.5,5.938l1.063,3.406l1.688,4.25l-1.063,2.75l-1.905,3.625l-0.438,2.125l-1.906,0.405l1.063,4.906v4.219l-2.563,3l-0.625,3.813
				l1.063,1.688l-0.625,1.5v1.5l0.844,0.188l0.625,0.875L376,387.594l2.594-0.375l1.156,1.375l-0.563,3.906l0.781,0.969l2.906-2.938
				l2.563-0.188L386,388.78l-3.313-0.405l-0.563-3.5l2.125-3.313l2.75-0.219l2.719,2.563L387,387.594l0.781,1.375l3.905,0.406
				l2.531-2.156l-1.375,2.938l0.406,2.345l4.094,0.375l5.469,0.405l0.781,2.531l2.938,2.156l2.53,0.188l1.75-1.563l1-2.938
				l1.563,1.375l1.156,1.375l0.78-7.25l-1.938-0.375l-1.188-2.53l-6.625-1.781l-0.813-3.313l2.375-1.563l-1.969-1.375l0.405-1.75
				l3.125,0.188l2.72,1.375l2.155-2.53l-2.155-1.75l0.188-2.345l1.188-3.719l4.094-0.406l3.313-1.344l0.345-0.781L417,364.75
				l-1.25-1.063l-1.938-0.188l-1.905-1.5l-2.531-1.5h-2.781l-1.063-1.063l-0.188-15.906h-0.656L403.843,345l-1.906,1.28l-4.469-1.28
				l-3.406-1.063l-1.469,0.438l-0.438-1.063l1.063-2.969l-0.438-3l0.875-2.125l-2.125-2.969h-2.97L384.937,329.281z"/>
			<path fill="#86AAE0" stroke="#FFFFFF" stroke-width="0.6" d="M149.313,270.625l-2.75,0.188l-5.969,3.625l1.438,1.313l-3.125,2.53
				l-0.375,1.97l-2.938,0.375l-1.563-1.75l-3.906-0.375l-0.406-1.97l-2.344-1.563l-3.313,1.188l2.156,3.125h2.719l2.75,1.75
				l2.156,1.75l4.094-0.188l0.781,1.75l2.719,0.594l1,2.719l1.75,0.781L144,290.594l-2.344-0.375l-0.781,1.156l1.75,2.53
				l-0.969,4.313l-2.344-0.188l0.188,2.72l0.594,0.969h-2.75l-0.375-1.563l1.75-2.344l-0.594-1.344l-0.969-0.781L136.75,291
				l-3.313-0.406l-2.719-3.313l-0.406,6.845l4.5,3.313l0.375,3.719l0.781,4.281l0.406,4.313l2.344-0.22l4.094,3.345l2.75,1.563
				l0.188,1.938l2.156,0.405l6.25,6.25l1.469,6.75h5.781l0.969-0.969l0.188,2.938l5.094,0.594l0.781,6.25l2.75,0.188l4.469,4.5
				l2.344,0.375l2.75-1.375l1.938,1.375l1.563-3.313l1.563-2.719l-4.156-2.813l-1.281-1.719l-1.719-1.906l-4.031,0.656l-1.281-0.656
				l-0.188-1.063l2.125-0.845v-0.405l-1.5-0.438l-1.063-0.844l2.563-2.125v-1.5L174,322.688l0.844-0.844l0.438-2.125l-1.5-1.469
				l-1.281-2.125L170.188,314l-1.719-1.063l1.5-1.719l-0.844-0.188l-0.219-4.469l-1.719-0.656l2.344-1.25h2.781l1.25-1.063h2.344
				l0.438,1.063l2.125,0.188l1.469-0.625l0.438-4.031l1.688-6.156l0.063-0.03l-1.531-1.47l-0.438-2.125l-2.75-1.28l-3.625-2.531
				l-4.47,0.406l-2.75-3.595l-4.031-0.219l-3.188-2.344v-1.281l-2.125-2.313l-0.094-2.875l-2.938-2.188l-3.719,1.563
				L149.313,270.625z"/>
			<path fill="#86AAE0" stroke="#FFFFFF" stroke-width="0.6" d="M265.75,307.625l-0.844,2.125l-3.188,0.625l-1.25,2.125h-1.5
				l-2.125-0.625l-1.5,2.53l-2.312,0.22l-1.5,2.75h-1.906l-1.5,1.5l-3.813-0.438l-1.281,2.125l-1.469-0.188L239,323.563
				l-2.344-0.875l-1.094,2.219l0.844,2.156l2.156,1.75l-3.906,3.531v2.719l1.563,0.781l-1.563,1.969l2.156,1.75l-1.563,1.938
				l1.75,1.188l4.281-0.188l-0.188,4.28l1.625,2.563l0.594-0.094l4.156-1.938l4.969,2.219l3.843,5.5l2.219-0.28l3.313-3.313
				l1.094,1.938l2.22-2.188l3.03,0.813l0.095,0.655l2.53-1.78L270,348.938l-1.188-1.188l1.563-1.938h1.563l1-3.125l0.781-1.563
				l-0.594-3.531l2.531-3.5l3.531-2.156l0.188-5.469l1.75,0.969l1.969,2.156h1.938l1.188-1.375l-0.969-2.344l0.969-3.5l-0.594-3.313
				l-1.188-1.375v-2.75l1.781-2.906l-0.406-2.75l-0.438-0.438l-1.969,1.531h-3.844l-1.25,1.905h-2.345l-1.905-1.905l-0.875-1.281
				h-4.875l-1.063-1.469h-1.499V307.625z"/>
			<path fill="#86AAE0" stroke="#FFFFFF" stroke-width="0.6" d="M256.125,267.875L254.968,271l-3.531-0.188l-0.781-0.406
				l-2.344,0.22l-1.75-1.188l-3.375,3.875l0.063,2.875l-2.344,4.656l0.438,2.344l2.531,0.625l1.719,4.25l1.688,1.719l-0.625,8.063
				l3.594-1.063l1.5,1.906l-2.344,1.906v1.938l1.906,0.188l3.406-0.188l1.063-1.5h0.844l-0.405,2.563l2.75,1.25l2.563,1.719v1.063
				h-1.5l0.438,2.53l1,0.625l0.25-0.405l3.188-0.625l0.844-2.125h1.5l1.063,1.469h4.875l0.875,1.281l1.906,1.905h2.344l1.25-1.905
				h3.844l1.969-1.531l-4.063-4.063l-0.375-1.75l3.719-2.155l2.156-1.156l0.563-2.75l2.344-1.75l-0.781-3.719l-1.563-1.938
				L287,283.5l-2.156-5.063l-2.156-0.781l-1.563-2.75l-1.375,1.75l-1.344-1.75v-2.344l-2.344-3.313l-6.438,0.78l-3.719-0.969
				L256.125,267.875z"/>
			<path fill="#86AAE0" stroke="#FFFFFF" stroke-width="0.6" d="M239.531,270.813l-1.75,1.75l-4.906-0.375l-0.563-0.125
				l-3.719,0.688l-2.156,1.78v2.345l-4.281,0.188L219.625,280l-1.563,1.155l1.344,1.563L219.219,288l-0.969,1.75l1.563,1.75
				l2.719,0.219l0.594,2.719l0.188,1.75l-3.5,0.781l-1.75,0.594l0.375,4.875L216.094,304l-1.969,0.594l-0.969,2.75l-1.563,0.188
				l-0.656,2.97l4.563,0.155l1,1.938l-0.813,2.156l1.781,2.344l1.344-0.375l1.375-1.969l6.25,0.594l1,3.906l4.281,0.594l0.969,1.344
				l-2.938,1.375l1.375,0.969l4.125,0.595l0.313,0.78l1.094-2.219l2.344,0.875l2.563-3.188l1.469,0.188l1.281-2.125l3.813,0.438
				l1.5-1.5h1.906l1.5-2.75l2.312-0.22l1.5-2.53l2.125,0.625h1.5l1-1.72l-1-0.625l-0.438-2.53h1.5v-1.063l-2.563-1.719l-2.75-1.25
				l0.406-2.563h-0.844l-1.063,1.5l-3.406,0.188l-1.906-0.188v-1.938l2.344-1.906l-1.5-1.906l-3.594,1.063l0.625-8.063l-1.688-1.719
				l-1.719-4.25l-2.531-0.625l-0.438-2.344l2.344-4.656l-0.063-2.875l-0.531,0.625L239.531,270.813z"/>
			<path fill="#86AAE0" stroke="#FFFFFF" stroke-width="0.6" d="M188.75,225.688l-3.719,3.906l-0.938,1.625l0.313,4.813l1.688-0.219
				l0.219,2.125l0.656,3.406l1.063,2.344l-1.281,1.469l0.625,1.063l-0.844,1.5v0.625l1.5,1.719v1.063l-0.656,1.688L185.25,256
				l2.125,0.844l0.656,1.5l-0.875,2.313l-0.188,1.063l-1.281,2.125v1.5l0.844,0.219v4.469l1.5,1.063l-0.656,1.469l0.219,1.281
				l1.688,1.906l0.875-1.281v-1.063l1.688-0.844l1.281,0.844v3.188l-1.281,1.5l-1.063,2.531l1.469,2.344l3,0.844l-0.656,1.938
				l-2.781,0.469l2.563,3.125l3.406-0.219l2.969-1.063l3,1.719l1.063-0.844l-0.219-2.781l1.688-1.28l1.5,2.563l1.25,1.281l3.625-1.5
				l1.5-1.688h3.375l1.75,0.875l0.125-3.688l-1.344-1.563l1.563-1.155l2.531-2.938l4.281-0.188v-2.345l2.156-1.78l5.281-0.97
				l0.375-2.938l-2.125-1.156l-1.188-4.094l-3.125-0.406l-1.938-1.938l-3.719-2.938l0.781-2.344v-3.719l-3.531-3.5l-0.375-2.75
				l-3.344-3.5l-1.156-4.688l-1.375-0.594l-1.563-2.156l-1.563,0.969l0.406,2.156l-5.094,1.188H199.5l0.188-2.345v-3.719
				L195,231.938v-2.344l-3.719-0.781l-0.781-3.125H188.75z"/>
			<path fill="#86AAE0" stroke="#FFFFFF" stroke-width="0.6" d="M206.281,284.875l-1.688,1.28l0.219,2.781l-1.063,0.844l-3-1.719
				l-2.969,1.063l-3.406,0.219l-2.563-3.125L191,286.375l-3.406,1.688l-2.563,0.656v1.469l-1.469,1.719l0.406,1.063l-1.906,1.063
				l-1.688,6.156l-0.438,4.031l-1.469,0.625l-2.125-0.188l-0.438-1.063h-2.344l-1.25,1.063h-2.781l-2.344,1.25l1.719,0.656
				l0.219,4.469l0.844,0.188l-1.5,1.719l1.719,1.063l2.313,2.125l1.281,2.125l1.5,1.469l-0.438,2.125L174,322.688l1.281,1.281v1.5
				l-2.563,2.125l1.063,0.844l1.5,0.438v0.405l-2.125,0.845l0.188,1.063l1.281,0.656l4.031-0.656l1.719,1.906l1.281,1.719
				l4.156,2.813l0.594-1l3.906,0.405l1.938-1.78l3.531-3.5l0.188-6.845l9.188-6.25l0.188-4.688l2.75-0.375l1.75-3.125l1.094,0.031
				l0.656-2.97l1.563-0.188l0.969-2.75l1.969-0.594l2.344-1.563l-0.375-4.875l1.75-0.594l3.5-0.781l-0.188-1.75l-0.594-2.719
				l-2.719-0.219l-1.563-1.75l0.969-1.75l0.063-1.595l-1.75-0.875h-3.375l-1.5,1.688l-3.625,1.5l-1.25-1.281L206.281,284.875z"/>
			<path fill="#86AAE0" stroke="#FFFFFF" stroke-width="0.6" d="M181.719,229.406l-5.281,0.188l-4.875,0.969l-5.281,0.406v2.719
				l-2.719,1.781l-6.063-1.375l-4.094,1.75l1.938,2.75v2.344l4.688,3.906l-1.156,2.531l3.125,3.5l-1.375,1.78l1.938,2.906
				l0.594,5.469L162,262.594l1.375,2.344L162,267.5l0.188,1.563l1.563-1.188l1.938,1.969l-2.719,1.75L162,272.75l-2.156,0.594
				l-2.531,1.188l-0.188-0.155l0.094,2.875l2.125,2.313v1.281l3.188,2.344l4.031,0.219l2.75,3.595l4.469-0.406l3.625,2.531
				l2.75,1.28l0.438,2.125l1.531,1.47l1.844-1.031l-0.406-1.063l1.469-1.719v-1.469l2.563-0.656l3.406-1.688l3.594-0.625
				l0.656-1.938l-3-0.844l-1.469-2.344l1.063-2.531l1.281-1.5v-3.188l-1.281-0.844l-1.688,0.844v1.063l-0.875,1.281l-1.688-1.906
				l-0.219-1.281l0.656-1.469l-1.5-1.063v-4.469l-0.844-0.219v-1.5l1.281-2.125l0.188-1.063l0.875-2.313l-0.656-1.5L185.25,256
				l2.125-3.188l0.656-1.688v-1.063l-1.5-1.719v-0.625l0.844-1.5l-0.625-1.063l1.281-1.469l-1.063-2.344l-0.656-3.406l-0.219-2.125
				l-1.688,0.219l-0.313-4.813l-0.406,0.719l-1.375-1.156L181.719,229.406z"/>
			<path fill="#86AAE0" stroke="#FFFFFF" stroke-width="0.6" d="M69.781,123.219L68,124.594l-4.469,0.563l-1,1.375l-3.125-2.344
				l-4.094,2.75l1.563,2.125l-2.719,3.719l-0.125-0.063l-1.125,5.25l2.406,0.156l-0.156,2.094l1.781,1.125l-1.625,1.625
				l-1.125,0.813l0.156,1.906l2.438,0.813l-2.281,0.655v2.406l1.469,1.938l0.313,5.656l-0.969,0.969l0.813,2.906l3.063,0.813
				l0.313,1.594l1.938,0.156l1.625-1.125l0.969,0.969l3.719,1.625l3.063-1.625l0.781-1.594l2.594-0.188l2.906,2.594l2.75-0.656
				l2.406,2.438h1.125l1.125,1.438h2.281l0.781-1.125l0.969,2.094l2.438,0.97l3.063-1.938v-2.094l2.25-0.813h1.438l1.781,3.25
				l3.875,0.313l1.938-2.438l2.094-4.5l2.75-0.969l1.438-2.094l1.469,1.438l3.063-0.625l0.969-8.875l0.969-3.563l-0.969-1.938
				l-1.625-0.625l-1.094-5.906l-1.25,1.406l-3.719-0.406l-0.375,2.156l-2.344,0.188l-0.188-2.719l-1.969-0.595l-1.375,1.563v-3.906
				l-2.344,1.75l-3.5-0.594l-1.188,2.344l-7.219,3.906v1.969h-1.563v-3.531l-4.094-1.938l0.375-3.531l-3.688-2.719v-3.313
				l-2.75-0.594l0.188-3.125l-2.125-0.188L75.438,124h-3.906l-0.594,1.938L69.781,123.219z"/>
			<path fill="#86AAE0" stroke="#FFFFFF" stroke-width="0.6" d="M138.531,229.563l-1.125,2.094h-3.219l1.281,1.313l-0.969,3.219
				l-2.906,0.969l-1.125-0.813l0.5-3.219l-0.813-1.781h-1.781l-1.281,1.438l0.625,4.531l1.469,2.094l-1.469,1.625l-2.719-0.5
				l-4.031-0.969l-1.125-3.063l-2.594-0.313l-3.375-1.469l-0.813-1.938l-3.688-2.405l-5.813,7.5l-0.188,4.688l6.031,5.844
				l-0.188,1.75h1.75l3.719,11.156l3.906,1.938l3.906,3.905h4.5l1.75,3.906h4.313L135,274l4.313,2.155l0.188-2.75l1.094,1.031
				l5.969-3.625l2.75-0.188l1.156,3.125l3.719-1.563l3.125,2.344l2.531-1.188L162,272.75l0.969-1.156l2.719-1.75l-1.938-1.969
				l-1.563,1.188L162,267.5l1.375-2.563L162,262.594l1.156-1.563l-0.594-5.469l-1.938-2.906l1.375-1.78l-3.125-3.5l1.156-2.531
				l-4.688-3.906v-2.344l-1.938-2.75l0.375-0.156l-2.656-2.25h-5l-1.625-0.969l-2.25-0.313l-2.594-2.438L138.531,229.563z"/>
			<path fill="#86AAE0" stroke="#FFFFFF" stroke-width="0.6" d="M119.563,77.5l-0.781,1.969l4.125,3.313v4.313l-1.563,1.938
				L122.313,90l0.594,0.405l-0.406,3.72l1.375,3.125l4.5,5.063l0.969,4.5l0.969,1.375v7.031l2.344,4.688v5.47l-2.531,5.063
				l2.719,7.031l4.313,0.969l0.375,1.97l-2.125,0.969h-3.688l0.594,2.469l1.156,3.719l3.344,2.938l1.563,0.375l1.563-2.125
				l1.75-0.219l2.125-2.531l1.969,1.563h2.344l1.563,0.781v0.375l3.313,0.406l1.969-1.563l2.906,1.188l0.063,0.125l3.344-2.844
				l1.125-3.72l-0.313-1.625l0.469-1.905l-1.938-1.938l-5-3.25l-3.688-0.313l-3.719-4.688l3.063-1.125l1.281-2.406l-1.594-1.469
				l1.438-1.281l1.438,1.125l2.594-1.594l1.625-2.594l0.625-2.563l-1.125-2.281l0.656-0.813l-1.469-2.406l1.625-2.094l-1.281-1.625
				l-1.625,2.094l-2.25-1.281l-3.719-3.719l-0.156-1.594l1.125-1.125l-0.344-2.156l-1.844,0.469l-0.188-4.688L143,89.438
				l1.563-3.906h2.156l-1.938-5.28l-8.406-0.406l-4.5,3.125l-5.063-3.313L119.563,77.5z"/>
			<path fill="#86AAE0" stroke="#FFFFFF" stroke-width="0.6" d="M56,160.594l-3.25,1.563h-2.281l-2.406,1.938l0.156,1.438
				l1.438,3.719l0.813,2.906l5,0.813l2.438,1.938l0.969-1.156l1.594,2.125l-0.813,0.969l-0.156,2.875h-1.438l-1.125,1.781h-2.281
				l-0.938,3.844l2.188,3.5l3.125,0.781l1.156-1.75L59.625,190l2.719,1.188l3.531,3.5l1.156,2.156l-0.375,2.531l-0.406,2.563
				l2.344,1.75l1.188-1.375l-1.188-1.563v-3.5l2.344,0.563l0.781-2.344l0.594,1.375L74.844,199l1.188-1.97l-1.188-2.719L77,197.25
				l2.719-0.406l-0.563-1.375l2.531,0.594l1.938,2.344l-0.969,1.563l-2.531-0.781l-2.938-1.375l-1.563,1.969l2.344,0.781l1.75,2.719
				l10.563-0.969L93,202.906l-1.344,1.156l0.188,1.781l0.375,0.281l0.844-0.156l1.75-1.75l1.156,1.344h3.125l3.719-1.938
				l5.469-2.156l0.188-5.469l1.156-0.625l-2.063-3.875l1.781-1.438l-0.313-0.969l-1.125-0.656l1.75-0.813l1.625-1.938l-0.156-1.938
				h-2.094l-0.5-1.906l1.469-1.938L108.375,177l-2.406-1.47h-2.75l-0.969-0.313v-1.281l1.438-1.313l0.813-3.22l-0.469-2.094
				l-0.656,0.813l-3.875-0.313l-1.781-3.25h-1.438l-2.25,0.813v2.094l-3.063,1.938l-2.438-0.969l-0.969-2.094l-0.781,1.125H84.5
				l-1.125-1.438H82.25l-2.406-2.438l-2.75,0.656l-2.906-2.595l-2.594,0.188l-0.781,1.594l-3.063,1.625l-3.719-1.625l-0.969-0.969
				l-1.625,1.125l-1.938-0.156l-0.313-1.594l-3.063-0.813L56,160.594z"/>
			<path fill="#86AAE0" stroke="#FFFFFF" stroke-width="0.6" d="M40.656,129.063l-2.125,2.344l-2.344-0.969l-4.313,0.406
				l-0.781,1.938l-2.531,0.595l-0.406-2.156l-4.469,0.594v1.375l-3.125,0.188l-1.375-0.969l-1.563,0.78l-0.406,2.345l-5.25,0.188
				l-2.75,3.313l2.344,1.75l-3.125,2.563l0.969,1.75l-0.781,4.281l3.125,0.406l1.188-1.188l0.594,0.781l7.406-0.969l4.875-3.5
				L21.531,149l0.375,1.938l3.906-1.75l-0.781,2.75l4.313,0.188l-0.188,1.155l-4.688-0.188l-3.719-0.969l-4.5-2.156l-2.719,3.125
				l3.5,1.188l-0.188,5.25l0.969-0.78l2.156-3.313l4.094,2.344l1.969,0.406l0.781,3.125l-1.188,2.125l-2.531-0.188H20.75
				l-3.906,0.594l-6.656,0.375L8.844,166l1.938,1.155l2.156-0.188l1.75,1.563l2.531-0.188l4.125,4.688l0.969,5.063l-1.375,2.75
				l4.094,0.781l4.5-0.22l0.969-1.75l-1.75-2.344l1.75,0.781l1.781-0.188l3.125,1.75l1.938-0.375v-3.344l0.781,3.344l2.531,4.095
				l5.469,0.375l0.219-1.156l1.344,1.938l3.344,0.595h2.531l0.156,0.219l0.938-3.844h2.281l1.125-1.781H59.5l0.156-2.875
				l0.813-0.969l-1.594-2.125l-0.969,1.155l-2.438-1.938l-5-0.813l-0.813-2.905l-1.438-3.72l-0.156-1.438l2.406-1.938h2.281
				l3.25-1.563l-0.688-2.469l0.969-0.97l-0.313-5.655l-1.469-1.938v-2.406l2.281-0.655l-2.438-0.813l-0.156-1.906l1.125-0.813
				l1.625-1.625l-1.781-1.125l0.156-2.094l-2.406-0.156l1.125-5.25l-3.219-1.875l-5.469,0.188v3.906h-1.563l-0.375-1.75
				l-2.344,0.375L40.656,129.063z"/>
			<path fill="#86AAE0" stroke="#FFFFFF" stroke-width="0.6" d="M116.25,135.906l-1.875,2.125l1.094,5.906l1.625,0.625l0.969,1.938
				l-0.969,3.563l-0.969,8.875l-3.063,0.625l-1.469-1.438l-1.438,2.094l-2.75,0.969l-2.094,4.5l-1.281,1.625l0.469,2.094
				l-0.813,3.22l-1.438,1.313v1.281l0.969,0.313h2.75l2.406,1.469l1.625,2.906l-1.469,1.938l0.5,1.906h2.094l0.156,1.938
				l-1.625,1.938l-1.75,0.813l1.125,0.656l0.313,0.969l-1.781,1.438l2.063,3.875l3.938-2.094l12.094-0.595l0.781-2.155l1.969-1.938
				l4.281-0.594l0.188-2.156l2.938,0.406l1.75,2.344l3.938,0.969l0.75-1.563l1-3.531l2.531-6.25l1.375-0.781l3.313,0.406v-5.281
				l-1.375-1.375v-5.655l-0.594-1.938v-3.125l1.969-1.969v-3.906l-0.969-0.781l0.188-5.469l-1.563-0.781h-2.344L143.813,146
				l-2.125,2.53l-1.75,0.22l-1.563,2.125l-1.563-0.375l-3.344-2.938l-1.156-3.719l-0.594-2.469h-9.594l-3.531-2.156l2.344-3.125
				L116.25,135.906z"/>
			<path fill="#86AAE0" stroke="#FFFFFF" stroke-width="0.6" d="M132.875,185.844L132.688,188l-4.281,0.594l-1.969,1.938
				l-0.781,2.156l-12.094,0.594L108.469,196l-0.188,5.469l-5.469,2.156l-3.719,1.938h-3.125l-1.156-1.344l-1.75,1.75l-0.844,0.156
				l1,0.688l-3.719,3.313l0.781,0.781l0.781,1.563l-1.969,2.75l2.156,1.156l3.719,0.781l0.375-1.563l2.156,2.75h3.531l2.531-2.75
				h3.313l-3.5,1.75l0.188,1.969l0.781,1.75l-2.156,2.156h-2.344l0.406,2.938l4.281-0.781l5.094,4.688l-0.25,0.313l3.688,2.406
				l0.813,1.938l3.375,1.469l2.594,0.313l1.125,3.063l4.031,0.97l2.719,0.5l1.469-1.625l-1.469-2.095l-0.625-4.53l1.281-1.438h1.781
				l0.813,1.781l-0.5,3.219l1.125,0.813l2.906-0.97l0.969-3.219l-1.281-1.313h3.219l1.125-2.095l1.125,0.156l2.594,2.438l1.875,0.25
				l0.063-2.031l-1.625-2.094h-1.438l-0.5,0.155l-0.969-0.469l0.813-0.813v-1.47l1.625-0.469l0.969-2.25l-0.813-0.813l-0.156-2.75
				H140l-2.094-2.595v-1.905l2.25-1.156l4.031-0.781l6.281,0.156l1.938-1.313l-0.656-4.03l-2.906-2.72l-3.531,0.47l-0.969-0.813
				l-0.156-2.875l2.563-2.281l-1.938-2.405l-1.281-3.406l-2.094-1.281v-2.25l-0.219-0.719l-3.656-0.906l-1.75-2.344L132.875,185.844
				z"/>
			<path fill="#86AAE0" stroke="#FFFFFF" stroke-width="0.6" d="M141.938,188.688l-0.438,0.875l-0.281-0.063l0.219,0.719v2.25
				l2.094,1.281l1.281,3.405l1.938,2.406l-2.563,2.281l0.156,2.875l0.969,0.813l3.531-0.469l2.906,2.719l0.656,4.031l-1.938,1.313
				l-6.281-0.156l-4.031,0.781l-2.25,1.155v1.906l2.094,2.594h2.094l0.156,2.75l0.813,0.813l-0.969,2.25l-1.625,0.469v1.47
				l-0.813,0.813l0.969,0.469l0.5-0.155h1.438l1.625,2.094l-0.063,2.031l0.375,0.063l1.625,0.969h5l2.656,2.25l3.719-1.594
				l6.063,1.375l2.719-1.781v-2.719l5.281-0.406l4.875-0.969l5.281-0.188l0.594,1.375l1.375,1.155l1.344-2.344l3.719-3.906h1.5
				l2.219-8l3.125-3.719l-0.219-4.281l1.969-2.563v-1.156l-0.969-1.188L197,203.5l-2.656-1.031l-8.219-5l-7.594-2.25l-2.906-0.156
				v-1.938l-1.781-1.47h-1.906l-3.563-1.125l-2.25,2.25l-5.156,0.188l-2.281-1.313l-5.781-1.75l-1.313,1.595l-3.219-2.095h-2.906
				L141.938,188.688z"/>
			<path fill="#86AAE0" stroke="#FFFFFF" stroke-width="0.6" d="M202.438,151.875l-5.281,0.188l-5.281,4.875l-2.75-0.156
				l-3.656,1.188l-1.125,1.938l-0.5,4.188l0.344,2.563l-2.906,2.438l-0.813,1.594l0.656,1.47l-0.813,1.938l0.313,0.813l-3.219,0.313
				l-0.469,1.438l1.438,3.563l-0.156,0.969l-1.281,1.125l-2.75,0.156l-0.344,0.969l0.656,0.97v5.813l-0.625,1.469l1.75,1.438v1.938
				l2.906,0.156l7.594,2.25l8.219,5L197,203.5l1.313-2.625l3.906,2.75h2.156l-1.188-3.906l2.375,1.563l1.344-1.969l5.656-1.563
				l-0.969-2.345l1.375-1.75l2.938-1.155l2.719-3.531v-3.719h1.969l0.781-2.72l0.188-4.094l-1.938-1.781l1.563-2.719L223.5,171
				l-2.719-1.938l-2.531-0.406l-2.75-4.094h-0.781l-0.188,1.938l-0.188-1.345h-4.094l-1.969-2.938l-3.313-1.188L204,154
				L202.438,151.875z"/>
			<path fill="#86AAE0" stroke="#FFFFFF" stroke-width="0.6" d="M182.5,146.406l-1.938,0.188l-0.813,1.938l-2.906,1.188
				l-5.281-0.781l-5.281,3.125l-1.938-1.375l-2.938,1.97l-2.156-1.563l-1.375-2.344l-2.906-1.188L153,149.125l-3.313-0.406
				l-0.188,5.094l0.969,0.781v3.906l-1.969,1.969v3.125l0.594,1.938v5.656l1.375,1.375v5.281l-3.313-0.406l-1.375,0.781l-2.531,6.25
				l-1,3.531l-0.313,0.688l3.531,0.719h2.906l3.219,2.095l1.313-1.595l5.781,1.75l2.281,1.313l5.156-0.188l2.25-2.25l3.563,1.125
				h1.906l0.031,0.031l0.625-1.469v-5.813l-0.656-0.969l0.344-0.969l2.75-0.156l1.281-1.125l0.156-0.969l-1.438-3.563l0.469-1.438
				l3.219-0.313l-0.313-0.813l0.813-1.938l-0.656-1.469l0.813-1.594l2.906-2.438l-0.344-2.563l0.5-4.188l1.125-1.938l3.656-1.188
				l-0.563-0.03l-1-3.531l-2.531-0.969l-0.781-4.281L182.5,146.406z"/>
			<path fill="#86AAE0" stroke="#FFFFFF" stroke-width="0.6" d="M202.656,97.781l-4.563,0.813l-7.438,4.313l-8.375,3.313
				l-6.656-3.719l-16-2.345l-3.719-1.938l-5.781,1.469l0.344,2.156l-1.125,1.125l0.156,1.594l3.719,3.719l2.25,1.281l1.625-2.094
				l1.281,1.625l-1.625,2.094l1.469,2.406l-0.656,0.813l1.125,2.281l-0.625,2.563l-1.625,2.594l-2.594,1.594l-1.438-1.125
				l-1.438,1.281l1.594,1.469l-1.281,2.406l-3.063,1.125l3.719,4.688l3.688,0.313l2.844,1.844l3.938-1.188l2.906-3.375l4.031,1.125
				l3.531-2.438l2.125-0.781l2.25,2.25l3.719-0.655l3.219,1.78l4.031-1.28l3.688-2.75l2.438-2.75l1.625-0.313l0.469,2.094
				l1.281-0.313l0.156-1.469l3.719-0.625l1.281,0.78l3.969-0.875l0.656-1.905l-0.188-1.75l-1.969-0.781l-0.188-1.375l1.75-1.156
				l0.219-1.969l-1.188-4.688l-2.344-3.313l1.969-1.156v-0.781l-1.969-0.594L202.656,97.781z"/>
			<path fill="#86AAE0" stroke="#FFFFFF" stroke-width="0.6" d="M206.844,124.656l-3.969,0.875l-1.281-0.78l-3.719,0.625
				l-0.156,1.469l-1.281,0.313l-0.469-2.094l-1.625,0.313l-2.438,2.75l-3.688,2.75l-4.031,1.28l-3.219-1.78l-3.719,0.655l-2.25-2.25
				l-2.125,0.781l-3.53,2.438l-4.031-1.125l-2.906,3.375l-3.938,1.188l2.156,1.406l1.938,1.938l-0.469,1.906l0.313,1.625
				l-1.125,3.719l-3.344,2.845l1.313,2.219l2.156,1.563l2.938-1.97l1.938,1.375l5.281-3.125l5.281,0.781l2.906-1.188l0.813-1.938
				l1.938-0.188l1.75,1.563l0.781,4.281l2.531,0.969l1,3.531l3.313,0.188l5.281-4.875l5.281-0.188L204,154l0.969,7.03l3.313,1.188
				l1.969,2.938h4.094l0.188,1.345l0.188-1.938h0.781l2.75,4.094l2.125,0.345v-4.625l-1.344-1.781l-0.406-1.563l2.938-1.75
				l2.938-0.594l1.938-2.344l-0.375-7.219l-4.125-3.5l-0.188-3.345l-3.5-2.344l1.375-1.938l-0.813-2.938l-2.719-0.969l-1.969-1.969
				l-1.156-2.72l-5.469-0.188l-1.563-1.969L206.844,124.656z"/>
			<path fill="#86AAE0" stroke="#FFFFFF" stroke-width="0.6" d="M247.156,126.094l-1.188,0.969v3.125l-3.906,1.938v2.938
				l-1.156,1.375H236l-2.313-0.969l-7.063,3.688h-2.719l-2.813,2.688l0.656,0.438l0.188,3.344l4.125,3.5l0.375,7.219l-1.938,2.344
				l-2.938,0.595l-2.938,1.75l0.406,1.563l1.344,1.781V169l0.406,0.063L223.5,171l-1,1.25l1.938,0.969l3.094-0.563h1.813
				l-0.125,0.845l-1.688,0.969l1.125,0.844h2.813l0.969,2.25l1.688,0.969l1.25,2.813l4.344,1.125l2.688-0.281l2.375-2.25
				l2.125,0.594l0.531-1.155l-0.125-1.25l1.125-0.845l1.813,1.125l1.125-0.844v-1.531l1.531-1l1.405,0.563l1.25,1.406l2.25-1.25
				h2.375l1.688-1.845l1-3.625l1.531-0.28L264,166.344l1.813-1.531l-0.563-1.125l0.219-0.375l-0.531,0.063l-0.405-5.25l-0.406-0.595
				L263.75,155l-4.094-0.781l-1.781-2.156l-0.563-4.313l-2.345-0.375l-0.405-2.156l-2.718-1.938l-1.375-3.344l1.375-2.344
				l-1.375-1.563v-1.938l0.781-2.156l-1.563-1.563l-0.594-2.345L247.156,126.094z"/>
			<path fill="#86AAE0" stroke="#FFFFFF" stroke-width="0.6" d="M318.437,157.344l-1.75,1.344l-7.625-0.375l-3.5,1.75L304.187,163
				l1.563,1.75l-2.344,2.75l-1.781,2.125l3.531,3.344l0.969,3.125l2.563,2.719v3.531l-5.095,4.281l1.75,1.969l-0.375,2.906
				l-2.75,1.969h-3.905l0.594,2.156l2.531,3.5l0.594,3.125l0.594,2.155l-1.156,0.345l2.469,0.563h1.845l0.969-1.531H308l1.406,1.25
				l-0.281,1.563l1.281,0.844h1.813l2.531,1.688l1.125-0.563l1.125,0.969l1.125-0.28l1.938-1.25l1.844,0.563l1.25-0.28v-3.5
				l0.688,0.125l0.438,1.813l2.25,1.406v2.125l3.219,0.125l4.219,3.938l2.656,0.125l-0.156-1.25l1.125-1.688l1,1.25l-0.844,1.406
				l0.406,1.28l1.53-1h1.845l-0.156,2.813l1.688,1.125l1.28-0.563l3.125-2.125l-0.188-0.405l-1.845-1.125l-0.125-1.97l1.97-0.969
				l0.844-1.125l-0.563-0.969v-2.25l1.531-2.25l2.25-4.781l0.406-2.094l1.406-0.563l0.156-0.405l-0.72-0.563v-1.688l2.25-1.688
				l0.563-2.813l-0.969-1.655h-1.563l-0.406-0.438v-2.375l1.97-1.406l-0.156-1.405L354,181.344l-1,2.156l-1.375-0.188l-1.156-2.156
				l-3.905,1.97l-7.813-0.406l-0.969-2.156l-2.156-2.906l-0.375-3.53l-3.125-3.72l-1.969,1.375l-3.531-2.719l0.594-5.281
				l-5.063-5.28h-2.345L318.437,157.344z"/>
			<path fill="#86AAE0" stroke="#FFFFFF" stroke-width="0.6" d="M423.5,175.5l-3.688,0.594l-0.594,1.938l-1.969,1.375l-1.344-1.563
				l-0.969,0.594l0.75,1.156l-1.938,1.188l0.594,1.563l-2.155,0.781v2.53h-2.75l-0.188,1.563l-2.719,0.594l0.188,2.345l1.75,0.188
				L407.5,191.5l-0.594,3.905h-1.75l-2.938,1.188l-3.125-1.188l-2.719,1.188v1.969l2.125,0.375l1.563,3.125l0.22,1.563l-2.531,2.938
				l-1.188,0.375l-0.78,0.97l2.155,1l0.375,3.125l1.75,0.188l0.22,3.906l0.78,0.781l0.095,0.625l1.5,0.405l1.688,1.406h2.531
				l0.969-0.969l1.72,0.063l1.78,0.063l3.938-3.219h1.125l1.25-0.97l4.063,0.125l3.094-2.53l2.25-0.406l0.845-2.094l1.813-0.563
				l1.813-3.094l2.531-1.969l2.655-0.406l1.97,1.406l3.655-0.438v-1.969l1.47-0.844l1.155-1.595h2.25l1.25-1.313l0.47-3.125v-1.938
				l-0.845-2.969v-2.5l1.531-1.125l1.813-0.938l-0.188-0.375l-6.25-3.313l-1.75-1.969l-1.75-1.156L439.937,180l-0.219,1.155
				l-1.563,0.97h-0.969l-2.938-3.313h-4.094l-1.75,1.375l-1.563,0.188l-2.531-1.938l0.188-2.156L423.5,175.5z"/>
			<path fill="#86AAE0" stroke="#FFFFFF" stroke-width="0.6" d="M241.938,61.5l-1.281,1.563l-8.375,6.438l-14.844,3.719l-9.781,3.5
				l-8,4.313l-4.688,7.03L194,93.531l3.906,2.938l5.656,1.156l-0.906,0.155l0.031,0.156l4.375-0.563l2.25-2.406L211,94.563
				l1.938,3.375l2.688-0.281l1.125,1.938l4.75-0.281l4.781,3.375l-3.094,0.97l2.25,1.688h1.406l1.25,2.688h2.25l0.688-1.688
				l-1.688-1.125l4.781-1.406l5.031-0.563l1.281-3.656l2.375-2.094l4.5-0.125l5.188,2.656l3.094,0.344l0.53-1.625l1.375-2.563
				l0.781-1.344h-1.97V91.5l-1.155-1.938l0.78-3.906l0.781-1.969h-1.563l0.781-1.938l1.938-2.345l-1.938-3.53l-0.594-3.5
				l-8.594-8.406l-0.969-1.938l-2.156,0.188L241.938,61.5z"/>
			<path fill="#86AAE0" stroke="#FFFFFF" stroke-width="0.6" d="M211,94.563l-1.688,0.406l-2.25,2.406l-4.375,0.563l0.906,7.25
				l1.969,0.594v0.781l-1.969,1.156l2.344,3.313l1.188,4.688l-0.219,1.969l-1.75,1.156l0.188,1.375l1.969,0.781l0.188,1.75
				l-1.563,4.5l1.563,1.969l5.469,0.188l1.156,2.719l1.969,1.969l2.719,0.969l0.813,2.938l-1.375,1.938l2.844,1.906l2.813-2.688
				h2.719l7.063-3.688l2.313,0.969h4.906l1.156-1.375v-2.938l3.906-1.938v-3.125l1.063-0.875l-0.094-0.875l1-1l-1.75-0.375v-1.563
				l-1-1.563l0.781-0.969l5.469-1.563l1.375-2.344l1.188-4.313l1.438-1.781l0.313-2.313l1.75,0.97l1.375-0.375l-1-1.563l-0.563-4.5
				l-1.75-1.563l0.031-0.125l-3.094-0.345l-5.188-2.655l-4.5,0.125l-2.375,2.094l-1.281,3.656l-5.031,0.563l-4.781,1.406
				l1.688,1.125l-0.688,1.688h-2.25l-1.25-2.688h-1.406l-2.25-1.688l3.094-0.969l-4.781-3.375l-4.75,0.281l-1.125-1.938
				l-2.688,0.281L211,94.563z"/>
			<path fill="#86AAE0" stroke="#FFFFFF" stroke-width="0.6" d="M212.188,196.875l0.375,0.875l-5.656,1.563l-1.344,1.969
				l-2.375-1.563l1.188,3.906h-2.156l-3.906-2.75l-1.938,3.905l0.969,1.188v1.156l-1.969,2.563l0.219,4.281l-3.125,3.719l-2.219,8
				h0.25l0.781,3.125l3.719,0.781v2.344l4.688,1.375v3.719l-0.188,2.345h5.844l5.094-1.188l-0.406-2.156l1.563-0.969l1.563,2.156
				l1.375,0.594l1.156,4.688l3.344,3.5l0.375,2.75l3.031,3l1.719-0.156l2.125-1.969l1.531-7.97l0.969-2.813l0.719-3.5l3.094-1.125
				l2.094,0.406l1.406,1.28l1.531-2.53l1.406-1.281v-1.531l1.813-0.125l0.438-1.844l-1.563-2.094l0.25-0.875l-1.094-0.938
				l-2.938-4.344h-3.781l-1.125-1.688v-7.03l-1.531-4.063l-0.281-5.031l-1.969-0.155l-2.25-1.688h-0.563l-1.969,1.406l-1.25-0.844
				l-0.281-1.938l1.406-0.719l0.125-0.688l-0.813-0.719L212.188,196.875z"/>
			<path fill="#86AAE0" stroke="#FFFFFF" stroke-width="0.6" d="M273.718,160.469l-2.53,2.344l-5.72,0.5l-0.219,0.375l0.563,1.125
				L264,166.344l0.406,3.656l-1.531,0.28l-1,3.625l-1.688,1.845h-2.375l-2.25,1.25l-1.25-1.406l-1.406-0.563l-1.531,1v1.531
				l-1.125,0.844l-1.813-1.125l-1.125,0.845l0.125,1.25l-0.531,1.155l0.406,0.125h1.656l-0.125,1.125l-1.125,1.938v1h1.125
				l0.969,1.125l0.281,1.125l-2.219,2.219l1.094,2.688v1.25l1.844,1.25l2.531,0.28l1.656,1.406l0.438,2.406l1.813,2.094l1.969-0.563
				l0.844-1.813l3.095,0.406l0.688,0.719h1.97l0.969-1.125l7.156,0.281l1.688,2.5l1.969,0.844l1.688,1.563l2.094-0.281l0.563-0.719
				h1.25l1.563,1.969l3.219,0.156l0.844,1.094l2.25,3.094l0.97,0.844l1.25-0.125l0.155-2.813l0.563-0.281l0.844,0.125l1.406,1.844
				l0.969,0.406l2-0.813l-0.313-0.345l-0.188-1.969l3.906-1.156l-0.594-2.155l-0.595-3.125l-2.53-3.5l-0.595-2.156h3.906l2.75-1.969
				l0.375-2.906l-1.75-1.969l5.094-4.281v-3.531l-2.563-2.719l-0.969-3.125l-3.531-3.344l-4.875,2.75l-0.375-1.563l-2.156-0.188
				l-0.594,1.563l-1.938,0.375l-5.28-0.188l-2.156,1.375l-1.75-1.563l3.125-2.156l-0.188-3.313l-2.344-1.188l-1.969-2.938
				l-5.25-0.375L273.718,160.469z"/>
			<path fill="#86AAE0" stroke="#FFFFFF" stroke-width="0.6" d="M254.718,221.438l-1.25,0.438l-2.531-0.156l-2.938,1l-0.688,1.531
				l-0.281-0.563l-3.375,0.156l-1.688,1.406l-1.967,0.28l-0.281,0.97l1.563,2.094l-0.438,1.844l-1.813,0.125v1.531l-1.406,1.281
				l-1.531,2.53l-1.406-1.28l-2.094-0.406l-3.094,1.125l-0.719,3.5l-0.969,2.813l-1.531,7.97l-2.125,1.969l-1.719,0.156l0.5,0.5
				v3.719l-0.781,2.344l3.719,2.938l1.938,1.938l3.125,0.406l1.188,4.094l2.125,1.156l-0.375,2.938l-1.563,0.281l0.563,0.125
				l4.906,0.375l1.75-1.75l3.125,3.125l3.906-4.5l1.75,1.188l2.344-0.22l0.781,0.406l3.531,0.188l1.156-3.125l9.781,1.188
				l3.719,0.969l1.688-0.188l0.095-1.563l1.969-1.969l-0.406-1.688l-1.125-2.22l0.406-0.844l0.156-2.531l0.688-0.844l0.156-0.563
				l-1.688-1.531l-0.563-1.97l-2.656-1.406v-1.688l1.938-1.125v-1.125l-1.813-1.53l-0.563-0.97l1.406-0.719l-0.125-1.25l2.219-1.844
				l-0.125-0.813h-1.813l-1.125-1.28v-0.688l0.97-1.688v-1.25l-2.25-2.97l0.438-2.655l-1.281-0.97l-2.656,0.125l-2.094,0.845
				l-2.813-0.406l-1.406-1.125l-0.281-0.844l2.25-1.845l0.156-2.219L256.406,223L254.718,221.438z"/>
			<path fill="#86AAE0" stroke="#FFFFFF" stroke-width="0.6" d="M222.5,172.25l-1.313,1.688l-1.563,2.719l1.938,1.781l-0.188,4.094
				l-0.781,2.72h-1.969v3.719l-2.719,3.531l-2.938,1.155l-1.375,1.75l0.594,1.47l9.469,0.313l0.813,0.719l-0.125,0.688l-1.406,0.719
				l0.281,1.938l1.25,0.844l1.969-1.406H225l2.25,1.688l1.969,0.156l0.281,5.03l1.531,4.063v7.031l1.125,1.688h3.781l2.938,4.344
				l1.094,0.938l0.031-0.094l1.969-0.281l1.688-1.406l3.375-0.156l0.281,0.563l0.688-1.531l2.938-1l2.531,0.156l1.25-0.438
				l1.688,1.563l2.969,1.688l2.5-0.155L261.75,222l1.125-1.25l1.125-0.125l0.969,1.094l3.938-0.406l2.5-1.406l-0.281-0.969
				l-0.688-0.844l0.125-1.844l1.845-3.345l2.375-1v-2.094l0.563-1.25L273.813,208l-1-2.125l-2.531-0.688l-0.125-0.844l2.531-2.094
				l2.844-1.406l-1.594-2.375l-7.156-0.281l-0.969,1.125h-1.97l-0.688-0.719l-3.095-0.406L259.218,200l-1.969,0.563l-1.813-2.094
				L255,196.063l-1.656-1.406l-2.531-0.28l-1.844-1.25v-1.25l-1.094-2.688l2.219-2.219l-0.281-1.125l-0.969-1.125h-1.125v-1
				l1.125-1.938l0.125-1.125h-1.656l-2.531-0.719l-2.375,2.25l-2.688,0.281l-4.344-1.125l-1.25-2.813l-1.688-0.969l-0.969-2.25
				h-2.813l-1.125-0.844l1.688-0.969l0.125-0.845h-1.813l-3.094,0.563L222.5,172.25z"/>
			<path fill="#86AAE0" stroke="#FFFFFF" stroke-width="0.6" d="M275.531,200.844l-2.844,1.406l-2.531,2.094l0.125,0.844
				l2.531,0.688l1,2.125l1.53,0.563l-0.563,1.25v2.094l-2.375,1l-1.845,3.345l-0.125,1.844l0.688,0.844l0.281,0.969l-2.5,1.406
				l-3.938,0.406L264,220.625l-1.125,0.125L261.75,222l0.125,2.53l-2.5,0.156l-0.156,2.219l-2.25,1.845l0.281,0.844l1.406,1.125
				l2.813,0.406l2.094-0.845l2.656-0.125l1.281,0.97l-0.438,2.655l2.25,2.97V238l-0.97,1.688v0.688l1.125,1.28h1.813l0.125,0.813
				l-2.219,1.844l0.125,1.25l-1.406,0.72l0.563,0.969l1.813,1.531v1.125l-1.938,1.125v1.688l2.656,1.406l0.563,1.969l1.688,1.531
				l-0.156,0.563l-0.688,0.845l-0.156,2.53l-0.406,0.845l1.125,2.219l0.406,1.688l-1.969,1.97l-0.095,1.563l4.595-0.563l0.938-2
				l2.531-2.906l4.875-1l2.563,0.781l2.719-2.125l-0.188-1.563l-0.969-0.781v-3.125l5.25-5.28l1.969,2.155l1.75-1.78l1.563-0.188
				l2.719-3.5l4.5,0.375l0.063,1.063l1.5-4.781l-0.97-1.75l0.188-2.531l0.594-5.094l-2.156-2.125l0.406-4.688l-1.969-4.125
				l-0.188-2.719l-3.53-2.75L299.5,216.5l1.75-2.531v-3.719l-2.031-2.375l-2,0.813l-0.969-0.406l-1.406-1.844L294,206.313
				l-0.563,0.281l-0.156,2.813l-1.25,0.125l-0.969-0.844l-2.25-3.094l-0.845-1.094l-3.219-0.156l-1.563-1.969h-1.25l-0.563,0.719
				l-2.094,0.281l-1.688-1.563l-1.969-0.844L275.531,200.844z"/>
			<path fill="#86AAE0" stroke="#FFFFFF" stroke-width="0.6" d="M363.375,177.25l-0.406,2.53l-2.53,1.375L354,181.344l0.281,1.406
				l0.155,1.405l-1.969,1.406v2.375l0.406,0.438h1.563l0.97,1.655l-0.563,2.813l-2.25,1.688v1.688l0.719,0.563l-0.155,0.405
				l-1.406,0.563l-0.406,2.094l-2.25,4.781l-1.53,2.25v2.25l0.563,0.969l-0.844,1.125l-1.969,0.969l0.125,1.97l1.844,1.125
				l0.688,1.53l-0.281,2.125l-0.405,1.531l0.969,1.688l2.813,0.563l1.25,1.969v0.845l-0.845,0.28v2.031l0.156,0.063l3.781,3.905
				l3.938-0.125l3.5,2.656l2.531,1.844l0.125,2.375l2.656,0.563l2.25,1.813l5.905-2.094l4.063-1.281l1.813-0.28l0.563-0.813
				l1.969,0.125l1.531,0.969L388.5,237l2.25-1.531l1.688,0.188l0.03-0.188l1.345-0.781l-0.188-1l-0.375-1.156l0.969-1.563
				l3.313-1.563v-1.563l1.188-1.563l1.156-1.563l-0.375-1.375l0.563-2.156l0.406-3.125h0.781l-0.188-1.156l-0.781-0.78l-0.219-3.906
				l-1.75-0.188l-0.375-3.125l-2.156-1l0.781-0.969l1.188-0.375l2.531-2.938l-0.219-1.563l-1.563-3.125l-2.313-0.406l-0.813,1.97
				l-4.281,0.969l-0.406-0.969l-3.125-3.906l-1.75,0.969l-2.344-0.188l-0.781-1.563l-3.125,0.19l-0.188-3.313l-1.75-1.188
				l2.531-2.72l-4.5-6.063l-3.5-3.719l-3.125-1.75h-5.655V177.25z"/>
			<path fill="#86AAE0" stroke="#FFFFFF" stroke-width="0.6" d="M306.75,203.781l-0.969,1.531h-1.845l-2.469-0.563l-2.75,0.813
				l0.188,1.969l2.344,2.72v3.719l-1.75,2.531l0.563,2.344l3.53,2.75l0.188,2.719l1.969,4.125l-0.406,4.688l2.156,2.125
				l-0.594,5.094l-0.188,2.531l0.97,1.75l-1.5,4.78l0.125,1.47l3.344,1.563L312,255l2.125-1.188l1.969-1.156l0.406,1.75h2.906
				l0.78-1.563l1.75,0.781l0.595,2.53l1.563-0.375l3.72-5.094l1.938,1.375l0.313,0.594l3.063-1.905l1.25,0.155l0.969,2.375
				l1.845-0.28l1.405-1.406h1.813l1.406-1.813l1.405-0.28l0.281-1l3.063,0.155l0.155-0.719l-1.405-1.25v-1.25l1.969-1.125v-0.844
				l-1.844-1.125l-0.281-2.094l0.156-1.97l-1.25-0.844l1.094-1.531l1-0.563l0.688-1.688l-0.969-0.563l-1.125-1.688l1.406-1.969
				l2.375-1.406h2.938v-2.219l0.844-0.281v-0.844l-1.25-1.969l-2.813-0.563l-0.969-1.688l0.406-1.531l0.28-2.125l-0.5-1.125
				l-3.125,2.125l-1.28,0.563l-1.688-1.125l0.156-2.813h-1.845l-1.53,1l-0.406-1.281l0.844-1.405l-1-1.25l-1.125,1.688l0.156,1.25
				l-2.656-0.125l-4.219-3.938l-3.219-0.125v-2.125l-2.25-1.406l-0.438-1.813l-0.688-0.125v3.5l-1.25,0.281L320.062,208l-1.938,1.25
				l-1.124,0.28l-1.125-0.969l-1.125,0.563l-2.531-1.688h-1.813l-1.281-0.844l0.281-1.563L308,203.78L306.75,203.781L306.75,203.781
				z"/>
			<path fill="#86AAE0" stroke="#FFFFFF" stroke-width="0.6" d="M351.468,227.844v0.188h-2.938l-2.375,1.406l-1.406,1.969
				l1.125,1.688l0.969,0.563l-0.688,1.688l-1,0.563l-1.095,1.53l1.25,0.845l-0.155,1.969l0.28,2.094l1.845,1.125v0.844l-1.97,1.125
				v1.25l1.406,1.25l-0.156,0.72l-3.061-0.16l-0.281,1l-1.405,0.28l-1.406,1.813h-1.813L337.187,253l-1.844,0.28l-0.969-2.375
				l-1.25-0.155l-3.063,1.905l3.625,6.813v2.938l0.969,1.188h3.313l1.156,1.563h3.125l1.375,1.938l-0.188,7.625l-4.095,3.125
				l-0.094,0.219l0.281-0.031l0.594,0.188l0.188,3.125l2.938,0.594l0.375,1.375h1.563l2.345-1.375l6.25,0.969l1.188,1.188
				l1.563-1.563h2.156l1.155-6.25l0.781-0.594h1.938l2.375,1.563l1.75-1.563l1.155,1.563l1.781-1.75l2.125-0.188l1,3.125l0.75,3.906
				l1.375,0.188l1.188-2.75l3.688-14.438l1.375-2.531l2.156-0.219l2.156,1.781l1.563-0.406l1.938-1.375l1.97,0.406l1.155,2.53
				l1.125,0.438l5.125-0.625l1.97-1.563l-0.781-1.188l-2.344-0.781l-0.22-2.719l1.97-1.375l0.78-3.313l-1.75-3.125l-1.188-1.563
				l0.594-0.594v-1.938l-1.563-1l-0.406-1.563l4.5-0.563l0.406-1.563h-1.375l-1.156-1.375h-2.156l-1.781-2.938L392.25,238
				l0.188-2.345l-1.688-0.188L388.5,237l-2.25,0.563l-1.531-0.969l-1.969-0.125l-0.563,0.813l-1.813,0.281l-4.063,1.281
				l-5.906,2.094l-2.25-1.813l-2.656-0.563l-0.125-2.375l-2.531-1.844l-3.5-2.656l-3.938,0.125l-3.781-3.906L351.468,227.844z"/>
			<path fill="#86AAE0" stroke="#FFFFFF" stroke-width="0.6" d="M401.156,217.531l0.094,0.531h-0.781l-0.405,3.125l-0.563,2.156
				l0.375,1.375l-1.156,1.563l-1.188,1.563v1.563l-3.313,1.563l-0.969,1.563l0.375,1.155l0.188,1l-1.344,0.781L392.25,238
				l1.563,0.188l1.78,2.938h2.156l1.156,1.375h1.375l-0.406,1.563l-4.5,0.563l0.406,1.563l1.563,1v1.938l-0.594,0.594l1.188,1.563
				l1.75,3.125l-0.781,3.313l-1.969,1.375l0.219,2.719l2.344,0.781l0.781,1.188l-1.969,1.563l-5.125,0.625l2.405,0.938l3.906,5.469
				l2.531,1.156v2.75l2.938-0.406l3.72-4.094l3.125,1.563v2.344h5.655l8.125-8.938l-0.344-0.188l0.375-4.094l2.938-3.5l-1.97-0.781
				l0.188-1.188l-2.375-0.219l-0.156-1.406l1.531-1.531l-0.406-1.531l-0.844-1.969l3.5-1.125l1.281-1.813l0.28-2.25l-2.813-2.688
				l-1.97-0.531l-4.344-1.405v-3.938l-0.281-2.938l-3.5,0.28l-5.469-1.844l0.844-1.938l1.25-2.97l0.438-1.938l-1.406-1.845
				l-2.53-1.688l-0.281-2.094l0.031-1.188l-1.72-0.063l-0.969,0.969h-2.531l-1.688-1.406L401.156,217.531z"/>
			<path fill="#86AAE0" stroke="#FFFFFF" stroke-width="0.6" d="M337.375,99.313l-2.344,1l0.405,1.938h-4.125l-3.688,2.75v5.25
				l2.719,1.78l0.781,1.75l-4.5,0.375l-0.563,1.781l1.75,1.156l-0.781,1.188l-1.75,0.781l0.375,1.344h2.531l1,1.375l-1.75,1.188
				l-1.563,4.094l-2.938,1.375l-1,2.125l-0.969,1.188l0.219,1.156l-1.563,1l-0.406,2.719l1.563,0.969l0.78,2.938l-0.969,1.75
				l0.594,1.375l2.906-0.188v0.969l0.844-0.188l3.375,3.563l4.75-0.78l5.563-3.781h3.344l3.375-2.375l3.97-2.188l2.969,0.22
				l0.406,3.969l3.563,5.344h3.969l5.563-1.188l3.969,1.375l4.156-2.969l0.594-4.938l4.594-0.781L379,136.625l-3.719-2.938
				l-0.406-1.563l1.375-2.345l-1.188-0.969l1.188-2.938l2.156-0.97l1.563-4.875l-3.125,0.188l1.75-1.938l-1.375-4.313l-1.344-2.938
				l1.75-1.563l-1-0.188l-0.25-1.344c-0.039,0.006-0.281,0.031-0.281,0.031l-1.78-1.594l-2,2h-0.595l-0.78-1l-4.75-0.188
				l-0.813,1.188H364l-1.188-2.595h-2.594l-0.594,0.595l-2.563-0.188l-3.188-2.375l-2.188-0.594l-0.78-1.188l-4.156-2.594
				L342,99.313l0.063,1.781l-1.375,0.375L337.375,99.313z"/>
			<path fill="#86AAE0" stroke="#FFFFFF" stroke-width="0.6" d="M257.218,80.219l-1.28,1.531l-0.781,1.938h1.563l-0.781,1.969
				l-0.781,3.906l1.156,1.938v3.344h1.969l-0.78,1.344l-1.375,2.563l-0.563,1.75l1.75,1.563l0.563,4.5l1,1.563L257.5,108.5
				l-1.75-0.97l-0.313,2.313l0.125-0.156l0.75,1.75l1.188,1.938l5.281,0.405l3.719-0.405l2.531-1.938l3.125,1.938l1.563,1.188
				l2.344-0.594l2.125-0.969l4.125,2.155l4.281,2.531l1.375,1.375l2.344-1.563l1.938,1.155l1.188,0.97l1.75-0.188l1.188-1.563
				l2.719,1.563l3.345-1.375l1.938,0.594l1.938-1.563l1.188-0.594l0.375,0.28l0.406-2.655l-1.406-1.595l-2.375-1.594l-1,1.594
				l-0.594,0.188l-0.188-2.969l1.781-0.406l-0.406-2.75l-2.375-0.406l1.188-2l3.375-0.781l1.188-4.75l1.781-0.813l-2.375-1.781
				l0.813-1.781l0.375-5.938l-0.813-4.594l-4.125,0.405l-2.781-0.375l-5.156,1.375l-4.375,4.156l-3.563-1.188l-3.563-0.375
				l-2.781-2.781l-4.969-1.406l-6.72,0.594l-1.78-1.375h-3.595l-2.563,1l-1.188-0.813v-2.156l-0.406-0.594h-2.472V80.219z"/>
			<path fill="#86AAE0" stroke="#FFFFFF" stroke-width="0.6" d="M269.25,8.656l-10.813,2.063l-8.593,6.625v26.375l-0.063,0.781
				l3.031,0.719l0.969,2.156l2.343-0.595l1.375-1.75l1.75,0.595l3.719,2.905l1.375-0.563l0.97,2.344l3.5,1.563v1.938l2.563,0.969
				l2.531-0.969l4.875-0.594l1.188,1l2.344-1l1.156,1.969l-2.906,1.938v2.75l0.969,0.969l0.781-0.188l0.563-1.563l1.78-1.188
				l1.75,1.375l4.095,1.375h1.75v-1.969l2.563,1.781L295,62.031l-1.188,1.75l2.155-1.188l1.781-0.781l0.75,1.375v1.375L301.437,63
				h4.688l0.188,0.188l1.155-2.219l-0.594-1l-1.781-0.375h-1.969l-1.188-0.406l1.97-1.188l1.78,0.188L307.468,58l0.219-3.188
				l1.188-0.781l0.188-1.78l-2.188-1.406l-2.563-0.188l-0.594-0.405l1.594-1.188l0.375-1.188l-1.375-0.97l-2-2.405l0.22-1.188
				l2.563-1.188l0.406-1.375l-1.781-0.813l-1-2.563l-3.563-0.406L295.593,36l-0.405-3.97l2.563-1.594l-0.969-2h-2l-1.375,2.188
				l-6.156-0.375l-4.969-1.22l-2.75-2.969v-2.375l2.156-1l-1.781-1.375l-4.344-0.188l-2.595-6.563L269.25,8.656z"/>
			<path fill="#86AAE0" stroke="#FFFFFF" stroke-width="0.6" d="M285.781,4.063L279.531,7l-9.75,1.563l-0.531,0.094l3.719,5.906
				l2.594,6.563l4.345,0.188l1.78,1.375l-2.155,1v2.375l2.75,2.97l4.969,1.219l6.156,0.375l1.375-2.188h2l0.969,2l-2.563,1.595
				L295.593,36l3.563,0.969l3.563,0.406l1,2.563l1.781,0.813l-0.406,1.375l-2.563,1.188l-0.22,1.188l2,2.406l1.375,0.969
				l-0.375,1.188l-1.594,1.188l0.594,0.406l2.563,0.188l2.188,1.406l-0.188,1.781l-1.188,0.78L307.468,58l-1.781,0.188L303.906,58
				l-1.97,1.188l1.188,0.406h1.969l1.781,0.375l0.594,1l-1.155,2.219l1.563,1.563l1.563,0.405l1.563-1h2.156l0.594,1.188
				l0.781-0.188l2.344-1.375l2.344,1.375L322.343,63h1.375l1.563,1.375l3.125-2.156l1.344,0.188l1.188,0.97l4.313,0.405l0.375,1.75
				l2.156-1.938h1.155l0.781,2.531l3.719,0.969l1.063-0.719h-0.313L344,64.438l3.906-2.344l-0.595-3.719l-3.719-0.97l0.969-1v-2.719
				l2.938-2.156l-0.781-1.563l-6.25-4.875l-10.938,0.594l-1.156,1.938H327l0.188-6.845l-3.125-3.688l-2.345,0.375l-1.375-1.563
				l-3.905,1.75l-1.345-1.344l-2.75-0.406l-0.78-2.53l-0.188-7.813l-1.75-0.781l-0.219-1.188h-1.156l-0.406-2.344l-2.53,0.219
				l-4.875,1.563l-2.345,2.906h-2.344L294.188,24l-0.595-2.156l-1.938-2.156h-2.75l-1.156-2.125v-3.344l1.344-2.125l-0.78-2.938
				L285.781,4.063z"/>
			<path fill="#86AAE0" stroke="#FFFFFF" stroke-width="0.6" d="M328.406,62.219l-3.125,2.156L323.718,63h-1.375l-3.125,2.155
				l-2.344-1.375l-2.344,1.375l-0.781,0.188l-0.594-1.188H311l-1.563,1h-0.063l0.469,2.75l-2.563,2.781v2.563l-1.781,2l0.406,2.375
				l0.969,3.969l1.188,6.75l-0.375,5.938l-0.813,1.781l2.375,1.781l-1.781,0.813l-1.188,4.75l-3.375,0.781l-1.188,2l2.375,0.406
				l0.406,2.75l-1.781,0.406l0.188,2.969l0.594-0.188l1-1.594l2.375,1.594l1.406,1.595l-0.406,2.655l1.781,1.281l0.594,4.313
				l5.25,5.063l1.75,0.594l1,2.345l3.281,0.688l0.406-0.5l1-2.125l2.938-1.375l1.563-4.094l1.75-1.188l-1-1.375h-2.53l-0.375-1.344
				l1.75-0.781l0.78-1.188l-1.75-1.156l0.563-1.781l4.5-0.375l-0.781-1.75l-2.719-1.78V105l3.688-2.75h4.125l-0.406-1.938l2.344-1
				l3.313,2.156l1.375-0.375l-0.188-6.656l0.594-2.344l0.781-2.719L340.687,88l0.595-1.563L345,85.656v-2.53l2.938-1.563l0.78-2.344
				l-0.969-1.563l0.188-2.938l1.75-1.563l-1.75-3.313l0.53-3.469H344.5l-1.063,0.719l-3.719-0.969l-0.781-2.531h-1.155l-2.156,1.938
				l-0.375-1.75l-4.313-0.405l-1.188-0.97L328.406,62.219z"/>
			<path fill="#86AAE0" stroke="#FFFFFF" stroke-width="0.6" d="M249.781,44.5l-0.531,6.438l4.313,3.906v1.969l-5.281-3.125
				l-6.344,7.813l1.688,0.719l2.156-0.188l0.969,1.938l8.593,8.406l0.594,3.5l1.938,3.53l-0.655,0.813h2.469l0.406,0.594v2.156
				l1.188,0.813l2.563-1h3.594l1.781,1.375l6.719-0.595l4.97,1.406l2.78,2.781l3.563,0.375l3.563,1.188l4.375-4.155l5.155-1.375
				l2.781,0.375l4.125-0.406l-0.375-2.156l-0.969-3.969L305.5,75.25l1.781-2v-2.563l2.563-2.781l-0.469-2.75l-1.5-0.405l-1.75-1.75
				h-4.688l-2.938,1.563v-1.375l-0.75-1.375l-1.781,0.781l-2.155,1.188l1.188-1.75l-0.188-1.563l-2.563-1.781v1.969h-1.75
				l-4.094-1.375l-1.75-1.375l-1.781,1.188l-0.563,1.563l-0.78,0.188l-0.97-0.969v-2.75l2.906-1.938l-1.156-1.969l-2.344,1l-1.188-1
				l-4.875,0.594l-2.531,0.97l-2.563-0.97v-1.938l-3.5-1.563l-0.97-2.344l-1.375,0.563l-3.719-2.905l-1.75-0.595l-1.375,1.75
				l-2.343,0.595l-0.969-2.156L249.781,44.5z"/>
			<path fill="#86AAE0" stroke="#FFFFFF" stroke-width="0.6" d="M367.625,55.844l-1.969,2.906l-1.75,1.78v1.75v2.345l-2.345,1.563
				l-4.28,1.375l-2.345,0.969l-2.75-2.155h-3.719l-0.531,3.469l1.75,3.313l-1.75,1.563l-0.188,2.938l0.969,1.563l-0.781,2.344
				L345,83.125v2.53l-3.719,0.781L340.687,88l2.563,1.375l-0.781,2.719l-0.594,2.344L342,99.313l4.75,0.125l4.156,2.594l0.78,1.188
				l2.188,0.594l3.188,2.375l2.563,0.188l0.594-0.594h2.594l1.188,2.594h1.375l0.813-1.188l4.75,0.188l0.78,1h0.595l2-2l1.78,1.594
				c0,0,0.242-0.025,0.281-0.031l-0.125-0.813l2.344-1.156l1.156-1.188l-0.75-1.938l-0.219-1.375l2.155-1.75l0.781-3.906
				l-2.344-2.938l0.781-1.375l1.969-3.688l0.563,0.781h2.938L387,89.938l1.75-1.156l1.375-2.25l-1.406-0.219l-0.78-3.906
				l-1.563-1.188l-5.469-0.594l-0.97-2.531l-1.78-1.156l-6.25-0.781l-0.375-4.5l0.78-0.78v-1.75l-3.125-1.97L369.781,65l0.78-1.938
				l-1.375-1.188l2.156-1.938v-3.531l-0.781-0.563h-2.937V55.844z"/>
			<path fill="#86AAE0" stroke="#FFFFFF" stroke-width="0.6" d="M349.312,138.688l-3.969,2.188l-3.375,2.375h-3.344l-5.563,3.78
				l-4.75,0.781l-3.375-3.563l-0.845,0.188v0.594l-2.719,1.156l-0.188,2.344l-1.375,1.781l-0.78,3.906l-0.438,3.281l1.219,1h2.345
				l5.063,5.28l-0.594,5.281l3.531,2.719l1.969-1.375l3.125,3.72l0.375,3.53l2.156,2.906l0.969,2.156l7.813,0.406l3.905-1.97
				l1.156,2.156L353,183.5l1-2.156l6.438-0.188l2.53-1.375l0.406-2.53h5.656l0.78,0.438l-0.655-2.5l-1.595-1l2.188-1.969
				l3.375-0.219l1.188-1.781l-0.22-7.125l-0.78-4.156l-3.375-1.188l-3.563-4.97l0.188-2.969l1.03-2.156l-1.813-0.625l-5.563,1.188
				h-3.969l-3.563-5.344l-0.406-3.97L349.312,138.688z"/>
			<path fill="#86AAE0" stroke="#FFFFFF" stroke-width="0.6" d="M379.093,139.719L374.5,140.5l-0.594,4.938l-4.156,2.969
				l-2.156-0.75l-1.03,2.156l-0.188,2.969l3.563,4.97l3.375,1.188l0.78,4.156l0.22,7.125l-1.188,1.78l-3.375,0.219l-2.188,1.969
				l1.595,1l0.655,2.5l2.345,1.313l3.5,3.719l4.5,6.063l-2.531,2.72l1.75,1.188l0.188,3.313l3.125-0.188l0.78,1.563l2.345,0.188
				l1.75-0.969l3.125,3.906l0.405,0.969l4.281-0.969l0.813-1.969l0.188,0.03v-1.969l2.719-1.188l3.125,1.188l2.938-1.188h1.75
				l0.594-3.906l0.969-1.156l-1.75-0.188l-0.188-2.345l2.719-0.594l0.188-1.563h2.75v-2.53l2.155-0.781l-0.594-1.563l0.594-0.375
				L412.562,179l-2.125,0.78v-4.094l-5.469-2.719l1.156-5.281l1.75-1.188l-0.563-1.75l-2.563-0.375l-0.563-2.563h-2.344l-2.75-3.688
				l-3.125-0.22l-1.344-1.938l1.75-1.75l-4.125-4.5l-1.75-0.594l-4.688-2.345l-2.531-2.719l-4.094-0.594L379.093,139.719z"/>
			<path fill="#86AAE0" stroke="#FFFFFF" stroke-width="0.6" d="M480.718,112.281L477,113.313l-1.719,3v2.938l-1.563,1.375h-1.375
				l-2.531-1.781l-1.969,1.375H465.5l-1.938-1.938l-3.719-0.594l-2.156-0.969l-0.78-2.938l-1.75,1.938l-0.97,4.5L451.625,121v2.53
				l2.563,1.188l1.938,1.375l-0.781,1.75l1.781,1.156l3.125-2.345l5.438,3.125l-2.313,4.313l0.188,1.375l1.563,1.563l-1.188,4.095
				l-3.905,3.905l-2.156-0.188l1.375,1.344l-0.781,3.531L459.25,155l3.719,0.969l-0.313,0.719l2.938-0.156l1.72,2.095l1.53,1.905
				l3.845-0.188l1.719,4.969l3,1.313L477.375,166l5.094-9.97l-0.594-5.655l2.344-7.625l0.595-6.656l5.063-3.688v-2.344l1.969-2.563
				h1.563l1.75-1.75l-0.375-3.313l1.75-4.688l2.719-0.595L496.531,115l-4.875-0.563l-4.313-2.156l-2.938,1.75l-1.563-1.75H480.718z"
				/>
			<path fill="#86AAE0" stroke="#FFFFFF" stroke-width="0.6" d="M401.593,88.438l-2.344,2.156l-3.313,0.188l-1.155,1.188h-0.25
				l-0.125,2.344l1.155,1.906l-0.405,1.156l-0.375,1.344l0.188,0.75l0.969-0.75l0.938-1.72l1.938-0.188l3.25-0.969l1.719,1.344
				l0.75,1.531l0.594,1.719v1.719l0.938,0.781v1.313l-0.938,1.155l-0.188,2.5l0.75,1.156l0.188,1.531l0.188,2.469l1.156,0.969
				l1.719,0.75l-0.75,1.531l2.095,1.938l-1.906,2.094l0.375,1.344l1.906,0.938v0.969h-2.281l-0.969,1.344l0.188,0.97l1.531,1.53
				l-1.313,3.625l-1.53,3.438l0.75,2.125v3.438l0.78,1.72h1.125l0.595,0.969h-1.72l-1.53,0.75v1.156l1.905,1.719v2.688l1.906-0.594
				l2.875,0.188l0.188,3.063l1.155,0.406l-1.344,0.938l-0.188,0.97l2.094,0.375l1.344,1.719l6.313-0.375l1.344-2.5h2.875
				l1.156-0.938l1.905,1.156l1.72-0.594l2.5,0.188l2.094-0.75l2.094-1.53l1.156,1.155l0.188-2.688l1.53-0.594l0.781,2.5l2.281,0.188
				l2.313,0.594l0.938,0.188l3.281-1.531l1.719-1.156l1.531-1.905l3.063-1.156l2-0.438l-1.125-1.094l2.156,0.188l0.406-0.406
				l-2.313-0.75l-3.25-2.281L452,139.469h-3.438l-3.625-2.094l-2.875-0.188v-0.781l-4.405-2.655l-4.97-2.125h-2.5l-0.938-2.656
				l-3.844-4.813h-3.813l-1.53-2.094H417l0.188-3.063l-4.031-2.5l0.188-2.47h2.125v-2.125l0.75-1.53l-1.719-1.72l1.531-2.655
				l-1.156-3.063l-0.938-0.781l-2.5-5.344l0.969-1.531c0,0-0.078-1.258-0.156-2.938h-2.625l-3.531-3.906h-4.502V88.438z"/>
			<path fill="#86AAE0" stroke="#FFFFFF" stroke-width="0.6" d="M307.5,116.5l-1.188,0.594l-1.938,1.563l-1.938-0.594l-3.345,1.375
				l-2.719-1.563l-1.188,1.563l-1.75,0.188l-1.188-0.97l-1.938-1.155l-2.344,1.563l-0.094-0.094l-0.844,5.406l1.156,6.875v4.594
				l-1.531,3.844l0.375,2.656l-1.719,1.344l0.938,5.188L285.5,150l-0.563,5.188l1.313,1.719l-4.375,2.875v3.938l1.219,1.813
				l2.344,1.188l0.188,3.313l-3.125,2.155l1.75,1.563l2.156-1.375l5.28,0.188l1.938-0.375l0.594-1.563l2.156,0.188l0.375,1.563
				l4.875-2.75l1.781-2.125l2.344-2.75l-1.563-1.75l1.375-2.938l3.5-1.75l7.625,0.375l1.75-1.344l0.155,0.156l0.438-3.281
				l0.781-3.906l1.375-1.78l0.188-2.345l2.719-1.155v-1.563l-2.906,0.188l-0.594-1.375l0.969-1.75l-0.78-2.938l-1.563-0.969
				l0.406-2.719l1.563-1l-0.219-1.156l0.563-0.688l-3.281-0.688l-1-2.344l-1.75-0.595l-5.25-5.063l-0.594-4.313L307.5,116.5z"/>
			<path fill="#86AAE0" stroke="#FFFFFF" stroke-width="0.6" d="M465.593,156.531l-2.938,0.156l-1.845,4.156l-2.344,4.688
				l0.594,2.938l-1.938,4.5l-3.344,2.906l-0.188,7.625l-2.438,2.094l0.094,0.063l0.781,1.563l3.125,0.188l3.53,2.75l0.563,1.344
				l-0.188,2.344l-0.969,1.781l0.375,2.344l2.75-0.406l0.594,2.156l0.97,4.156l2.313-0.375l-0.406,2.125l1.375,1.188l7.22-0.188
				l3.719-2.938l0.188-4.313l1.97-2.531l-2.563-2.938l-1.344-3.125l1.563-2.125v-4.905l0.97-2.345V177.5l1.75-2.531l-1.938-2.719
				l-0.188-5.625l-3-1.313l-1.72-4.969l-3.844,0.188l-1.531-1.905L465.593,156.531z"/>
			<path fill="#86AAE0" stroke="#FFFFFF" stroke-width="0.6" d="M390.125,86.531l-1.375,2.25L387,89.938l-1.375-1.344h-2.938
				l-0.563-0.781l-1.969,3.688l-0.781,1.375l2.344,2.938l-0.781,3.906l-2.155,1.75l0.219,1.375l0.75,1.938l-1.156,1.188
				l-2.344,1.156l0.375,2.156l1,0.188l-1.75,1.563l1.344,2.938l1.375,4.313l-1.75,1.938l3.125-0.188l-1.563,4.875l-2.156,0.969
				l-1.188,2.938l1.188,0.97l-1.375,2.344l0.406,1.563l3.719,2.938l0.188,6.844l4.094,0.594l2.531,2.72l4.688,2.344l1.75,0.594
				l4.125,4.5l-0.438,0.438l3.438-0.438V152.5l3.844-0.781v-1.313h0.938v1.125l3.063-0.938l1.188-1.594l-0.219,0.063v-2.688
				l-1.906-1.72V143.5l1.531-0.75h1.719l-0.594-0.97h-1.125l-0.781-1.719v-3.438l-0.75-2.125l1.531-3.438l1.313-3.625l-1.531-1.531
				l-0.188-0.969l0.969-1.344h2.281v-0.969l-1.906-0.938l-0.375-1.344l1.906-2.094l-2.094-1.938l0.75-1.531l-1.72-0.75l-1.155-0.969
				l-0.188-2.469l-0.188-1.531l-0.75-1.156l0.188-2.5l0.938-1.155v-1.313l-0.938-0.781v-1.719l-0.594-1.719l-0.75-1.531l-1.72-1.344
				l-3.25,0.969L396.875,97l-0.938,1.719l-0.969,0.75l-0.188-0.75l0.375-1.344l0.406-1.156l-1.156-1.906l0.125-2.344h-0.938
				l-0.78-3.719l-1.563-1.563L390.125,86.531z"/>
			<path fill="#86AAE0" stroke="#FFFFFF" stroke-width="0.6" d="M423.093,90.406l-2.938,0.188l-2.345,1.969l-0.594,0.969h-3.313
				l-1.156-1.188h-0.5c0.078,1.68,0.156,2.938,0.156,2.938l-0.97,1.531l2.5,5.344l0.938,0.781l1.156,3.063l-1.531,2.655l1.719,1.72
				l-0.75,1.53v2.125h-2.125l-0.188,2.47l4.03,2.5L417,122.063h3.063l1.53,2.094h3.813l3.844,4.813l0.938,2.656h2.5l4.97,2.125
				l4.405,2.655v0.781l2.875,0.188l3.625,2.094H452l2.875,2.125l3.25,2.281l2.313,0.75l3.5-3.5l1.188-4.094l-1.563-1.563
				l-0.188-1.375l2.313-4.313l-5.438-3.125L457.125,129l-1.781-1.156l0.781-1.75l-1.938-1.375l-2.563-1.188V121l2.563-0.781
				l0.97-4.5l1.75-1.938l0.78,2.938l2.156,0.969l3.719,0.594l1.938,1.938h2.344l1.97-1.375l2.53,1.781h1.375l1.563-1.375v-2.938
				l1.719-3l-0.406,0.125l-1.344-1.938l-3.906-2.345L469.968,107l-4.688,0.405l-2.75,2.531l-6.625,0.188l-1.97-1.375
				c-0.131-0.239-1.092-1.937-1.938-2.406c-0.031-0.018-0.086-0.046-0.125-0.063c-0.027-0.012-0.07-0.023-0.094-0.03
				c-0.011-0.006-0.052-0.025-0.063-0.031c-0.002,0-0.026,0-0.031,0c-0.024-0.002-0.071,0-0.094,0c-0.914,0-2.688-1.027-2.906-1.156
				l-2.75,1.156l-0.188,2.344l-3.313,0.406l-1.969-3.719l-1.156-0.406v-2.719l-2.75-1.188l-0.188-4.688l-1.969-1.938l-4.095-1.969
				h-1.938l-0.594,0.406h-1.97L423.093,90.406z"/>
			<path fill="#86AAE0" stroke="#FFFFFF" stroke-width="0.6" d="M459,145.938l-2,0.438l-3.063,1.155l-1.53,1.906l-1.72,1.156
				l-3.28,1.531l-0.938-0.188l-2.313-0.594l-2.281-0.188l-0.781-2.5l-1.531,0.595l-0.188,2.688l-1.156-1.156l-2.094,1.531
				l-2.094,0.75l-2.5-0.188l-1.719,0.594l-1.906-1.156l-1.156,0.938h-2.875l-1.344,2.5l-6.313,0.375l-1.344-1.72l-2.094-0.375
				l0.188-0.969l1.345-0.938l-1.156-0.406l-0.188-3.063l-2.875-0.188L408.406,149l-1.188,1.594l-3.063,0.938v-1.125h-0.938v1.313
				l-3.844,0.781v1.719l-3.438,0.438l-1.313,1.313l1.344,1.938l3.125,0.219l2.75,3.688h2.344l0.563,2.563l2.563,0.375l0.563,1.75
				l-1.75,1.188l-1.156,5.281l5.469,2.719v4.095l2.125-0.781l1.781,1.406l1.344-0.813l-0.75-1.156l0.97-0.594l1.344,1.563
				l1.969-1.375l0.595-1.938l3.688-0.594l1,0.781l-0.188,2.155l2.53,1.938l1.563-0.188l1.75-1.375h4.094l2.938,3.313h0.97
				l1.563-0.969l0.22-1.156l1.563-0.781l1.75,1.156l1.75,1.969l6.156,3.25l2.438-2.094l0.188-7.625l3.344-2.906l1.938-4.5
				l-0.595-2.938l2.345-4.688l2.155-4.875L459.25,155l-0.781-5.281l0.781-3.531L459,145.938z"/>
			<path fill="#86AAE0" stroke="#FFFFFF" stroke-width="0.6" d="M274.218,136.406l-1.75,0.781l-1.905,0.75l-0.375,2.125
				l-2.875,1.344l-0.375,2.095l1.344,2.313l-1.938,2.656H263.5l1.125,1.719l-1.344,1.531l-0.469,3.094L263.75,155l0.375,2.53
				l0.406,0.595l0.406,5.25l6.25-0.563l2.53-2.344l2.156,1.75l5.25,0.375l0.75,1.125v-3.938l4.375-2.875l-1.313-1.719L285.5,150
				l0.75-1.125l-0.938-5.188l1.719-1.344l-0.344-2.438l-2.156-1h-3.625l-2.094-1.155l-1.531,0.78L274.218,136.406z"/>
			<path fill="#86AAE0" stroke="#FFFFFF" stroke-width="0.6" d="M251.5,118.156l-0.063,0.125l-5.469,1.563l-0.781,0.969l1,1.563
				v1.563l1.75,0.375l-1,1l0.094,0.875l0.125-0.094l1.938,1.938l0.594,2.344l1.563,1.563l-0.781,2.156v1.938l1.375,1.563
				l-1.375,2.344l1.375,3.345l2.717,1.938l0.406,2.156l2.344,0.375l0.563,4.313l1.781,2.156l3.155,0.594l0.47-3.094l1.344-1.531
				l-1.125-1.719h2.844l1.938-2.656l-1.344-2.313l0.375-2.094l2.875-1.345l0.375-2.125l1.905-0.75l1.75-0.78l0.345,0.219v-0.219
				l-1.75-1.97l-1.095-2.969l1.75-3.813l-0.875-2.875l-3.405-2.063l-4.813-0.219l-4.5-2.875l-3.625,0.656L251.5,118.156z"/>
			<path fill="#86AAE0" stroke="#FFFFFF" stroke-width="0.6" d="M255.563,109.688L254,111.625l-1.188,4.313l-1.313,2.219l4.75,2.125
				l3.625-0.655l4.5,2.875l4.813,0.219l3.405,2.063l0.875,2.875l-0.03,0.063l0.375-0.063l3.5-1.875l5.25-0.345l2.875-1.313
				l1.844-1.313l0.594-3.844l-1.281-1.281l-4.281-2.531L278.188,113l-2.125,0.969l-2.345,0.594l-1.563-1.188l-3.125-1.938
				l-2.531,1.938l-3.719,0.405l-5.281-0.405l-1.188-1.938L255.563,109.688z"/>
			<path fill="#86AAE0" stroke="#FFFFFF" stroke-width="0.6" d="M287.281,122.813l-1.844,1.313l-2.875,1.313l-5.25,0.345
				l0.155,0.719l0.438,0.094l0.406,0.625l-0.406,0.875l-0.531,0.094l0.375,0.906l2.531-0.031l0.813,1.25l0.156,1.75l0.875-0.125
				l0.813-0.655l1.22,0.063l1.53,0.875l0.875,0.969l0.406,0.188l0.25,0.469l0.969,0.25v-2.844l-1.155-6.875L287.281,122.813z"/>
			<path fill="#86AAE0" stroke="#FFFFFF" stroke-width="0.6" d="M280.281,129.063l-2.531,0.031l-1.125,0.5l-0.469,0.625
				l-1.031,0.063l-0.938,1.063l0.03,0.594l0.22,0.688l1.563,0.438l1.906,0.97l1.219,0.063l0.813-0.219l0.845-0.594l0.28,0.25
				l1.813,0.25l0.313-0.656v-0.656l-0.313-0.125l-1.25,0.063l0.094,0.313l-0.219,0.188h-0.406l0.156-0.406l0.063-0.438h-0.063
				l-0.156-1.75L280.281,129.063z"/>
			<path fill="#86AAE0" stroke="#FFFFFF" stroke-width="0.6" d="M277.313,125.781l-3.5,1.875l-0.375,0.063l-1.72,3.75l1.095,2.969
				l1.75,1.969v0.22l2.719,1.905l0.656-0.344l-0.5-0.938l0.5-1.47l-0.313-0.53l0.344-1.22h-0.063L276,133.063l-1.563-0.438
				l-0.22-0.688l-0.03-0.594l0.938-1.063l1.031-0.063l0.469-0.625l1.125-0.5l-0.375-0.906l0.531-0.094l0.406-0.875l-0.406-0.625
				l-0.438-0.094L277.313,125.781z"/>
			<path fill="#86AAE0" stroke="#FFFFFF" stroke-width="0.6" d="M282.938,131.281l-0.813,0.656l-0.813,0.125l-0.063,0.438
				l-0.156,0.405h0.406l0.219-0.188l-0.094-0.313l1.25-0.063l0.313,0.125v0.656l-0.313,0.655l-1.813-0.25l-0.281-0.25l-0.844,0.595
				l-0.813,0.219l-1.156-0.063l-0.344,1.22l0.313,0.53l-0.5,1.47l0.5,0.938l0.875-0.438l2.094,1.155h3.625l2.156,1l-0.031-0.219
				l1.531-3.844v-1.75l-0.97-0.25l-0.25-0.469l-0.405-0.188l-0.875-0.969l-1.531-0.875L282.938,131.281z"/>
			<path fill="#86AAE0" stroke="#FFFFFF" stroke-width="0.6" d="M447.406,199.719l-0.188,0.219h-2.25l-1.156,1.594l-1.469,0.845
				v1.969l-3.656,0.438l-1.969-1.405l-2.656,0.405l-2.53,1.97l-1.813,3.094l-1.813,0.563l-0.844,2.095l-2.25,0.405l-3.095,2.531
				l-4.063-0.125l-1.25,0.969h-1.125l-3.938,3.22l-1.781-0.063l-0.03,1.188l0.28,2.094l2.531,1.688l1.406,1.844l-0.438,1.938
				l-1.25,2.97l-0.845,1.938l5.47,1.844l3.5-0.28l0.28,2.938v3.938l4.345,1.405l1.969,0.531l2.813,2.688l-0.281,2.25l-1.28,1.813
				l-3.5,1.125l0.844,1.969l0.406,1.531l-1.531,1.531l0.156,1.406l2.375,0.219l0.03-0.188l12.095-11.344l-0.375-9.375l4.28-2.125
				l2.938-1.375l2.719-2.531l0.22-3.719l2.719-1.375l6.25-7.219l-0.969-2.344l2.155-0.97l2.531-3.125l-1.373-1.38l-4.688,0.969
				l-0.188-0.78l4.313-4.97L447.406,199.719z"/>
			<path fill="#86AAE0" stroke="#FFFFFF" stroke-width="0.6" d="M451.437,186.031l-1.813,0.938l-1.531,1.125v2.5l0.844,2.969v1.938
				l-0.469,3.125l-1.063,1.094l12.031,5.438l0.75-0.875l2.594-0.406l-0.969-4.156l-0.595-2.156l-2.75,0.406l-0.375-2.344l0.97-1.781
				l0.188-2.344l-0.563-1.344l-3.531-2.75l-3.125-0.188L451.437,186.031z"/>
		</g>
		<g id="Calque_3">
			<path fill="#86AAE0" stroke="#FFFFFF" stroke-width="0.6" d="M69.408,9.212l-7.211,5.134l-11.246,5.132l-9.437,0.62
				l-11.097,0.726l0.61,2.812l1.71,0.366l1.589,2.445l-1.589,3.423l-2.077,0.365l1.467,3.546l9.9-0.122l3.179,4.888l0.611,6.845
				l3.422-0.488l3.178-2.566l4.767,0.244l5.99,3.422l3.422,3.79l1.589,0.732l0.978,1.833l3.789,0.979V42.215L68.43,15.323
				L69.408,9.212z"/>
			<path fill="#86AAE0" stroke="#FFFFFF" stroke-width="0.6" d="M42.028,33.658l-9.9,0.122l-4.401,1.954l-1.833,2.445l-4.035,0.245
				l-3.666,4.156l0.122,2.322l0.856,2.689l6.112,1.711l7.455,3.789l4.768,0.244l3.178-0.856l3.3-2.321l1.1,0.978l7.09,0.979
				l1.222-2.566v-2.568l-1.222-0.487l-4.89,0.244l0.367,1.223l-0.855,0.732h-1.589l0.611-1.59l0.244-1.711h-0.244l-0.611-6.845
				L42.028,33.658z"/>
			<path fill="#86AAE0" stroke="#FFFFFF" stroke-width="0.6" d="M30.418,20.823l-5.747,3.078l-7.944,4.255l-1.467,0.245
				L8.538,43.069l4.278,11.612l6.846,7.7v0.855l10.634,7.457l2.567-1.345l-1.956-3.668l1.956-5.745L31.64,57.86l1.344-4.768h-0.245
				l-7.455-3.789l-6.112-1.711l-0.856-2.689l-0.122-2.322l3.666-4.156l4.035-0.245l1.833-2.445l4.401-1.954l-1.467-3.546
				l2.077-0.365l1.589-3.423L32.739,24l-1.71-0.366L30.418,20.823z"/>
			<path fill="#86AAE0" stroke="#FFFFFF" stroke-width="0.6" d="M52.418,42.337l-3.178,2.566l-3.178,0.488l-0.244,1.711l-0.611,1.59
				h1.589l0.855-0.732l-0.367-1.223l4.89-0.244l1.222,0.487v2.568l-1.222,2.565l-7.09-0.979l-1.1-0.978l-3.3,2.321l-3.178,0.856
				l-4.523-0.244L31.64,57.86l1.222,2.077l-1.956,5.745l1.956,3.668l3.422-1.712l8.19,4.523h14.178l8.434,3.91l-0.121-0.856
				l5.988-15.033v-6.845l-3.789-0.979l-0.978-1.833l-1.589-0.732l-3.422-3.79l-5.99-3.422L52.418,42.337z"/>
		</g>
	</g>
</g>
</svg>
